<?xml version="1.0" encoding="UTF-8"?>
<!DOCTYPE svg PUBLIC "-//W3C//DTD SVG 1.1//EN" "http://www.w3.org/Graphics/SVG/1.1/DTD/svg11.dtd">
<svg xmlns="http://www.w3.org/2000/svg" version="1.1" width="80px" height="80px" style="shape-rendering:geometricPrecision; text-rendering:geometricPrecision; image-rendering:optimizeQuality; fill-rule:evenodd; clip-rule:evenodd" xmlns:xlink="http://www.w3.org/1999/xlink">
<g><path style="opacity:0.892" fill="#4d8cc9" d="M 17.5,1.5 C 24.4905,0.353129 30.6571,2.0198 36,6.5C 37.2148,11.0509 37.8814,15.7176 38,20.5C 38.5359,22.8689 39.7026,24.8689 41.5,26.5C 39.1156,29.9176 35.7823,31.7509 31.5,32C 37.4256,33.7572 41.0923,37.5905 42.5,43.5C 43.9305,43.5792 45.2638,43.2458 46.5,42.5C 48.7865,37.712 52.4532,34.5454 57.5,33C 56.5838,32.6258 55.7504,32.1258 55,31.5C 50.5166,24.5816 51.0166,18.0816 56.5,12C 66.7608,9.75627 71.7608,13.9229 71.5,24.5C 70.0825,26.7093 68.9158,29.0426 68,31.5C 67.2496,32.1258 66.4162,32.6258 65.5,33C 69.8429,34.0095 73.0096,36.5095 75,40.5C 75.4997,48.8267 75.6664,57.16 75.5,65.5C 72.8333,65.5 70.1667,65.5 67.5,65.5C 67.9167,68.0792 67.25,70.2458 65.5,72C 56.5487,72.6233 47.882,74.4566 39.5,77.5C 31.118,74.4566 22.4513,72.6233 13.5,72C 11.75,70.2458 11.0833,68.0792 11.5,65.5C 8.83333,65.5 6.16667,65.5 3.5,65.5C 3.0943,57.0826 3.5943,48.7492 5,40.5C 7.31513,36.1832 10.8151,33.3498 15.5,32C 12.176,31.0572 8.84264,30.2239 5.5,29.5C 6.38821,26.757 7.55488,24.0904 9,21.5C 8.9052,15.9104 9.9052,10.5771 12,5.5C 13.8121,4.02294 15.6455,2.6896 17.5,1.5 Z"/></g>
<g><path style="opacity:1" fill="#b1d8fb" d="M 18.5,3.5 C 24.4961,2.75551 29.6628,4.42217 34,8.5C 34.8884,14.5655 36.055,20.5655 37.5,26.5C 36.4729,28.024 34.9729,28.6906 33,28.5C 31.8333,28.1667 30.6667,27.8333 29.5,27.5C 31.3523,23.3296 31.8523,18.9963 31,14.5C 30.6322,13.09 29.7989,12.09 28.5,11.5C 24.0303,13.3219 19.8636,15.6552 16,18.5C 15.4572,21.8678 15.6239,25.2011 16.5,28.5C 13.9272,28.8515 11.5938,28.3515 9.5,27C 11.1441,21.6817 11.9775,16.1817 12,10.5C 13.6941,7.64238 15.8607,5.30904 18.5,3.5 Z"/></g>
<g><path style="opacity:1" fill="#add5f9" d="M 58.5,13.5 C 62.0798,12.9228 65.0798,13.9228 67.5,16.5C 68.3256,17.451 68.4922,18.451 68,19.5C 66.1781,17.9546 64.0114,17.288 61.5,17.5C 58.9886,17.288 56.8219,17.9546 55,19.5C 54.5078,18.451 54.6744,17.451 55.5,16.5C 56.7701,15.7124 57.7701,14.7124 58.5,13.5 Z"/></g>
<g><path style="opacity:1" fill="#d9ecfc" d="M 27.5,14.5 C 28.7647,15.5145 29.4313,17.0145 29.5,19C 30.0032,24.0364 28.0032,27.5364 23.5,29.5C 18.2719,28.0443 16.4385,24.7109 18,19.5C 20.9951,17.3475 24.1618,15.6808 27.5,14.5 Z"/></g>
<g><path style="opacity:1" fill="#dbedfc" d="M 57.5,19.5 C 66.929,18.0824 69.5957,21.5824 65.5,30C 59.4609,33.1317 56.1275,31.2983 55.5,24.5C 55.4365,22.4861 56.1032,20.8194 57.5,19.5 Z"/></g>
<g><path style="opacity:1" fill="#b3d9fc" d="M 19.5,30.5 C 21.8439,31.6716 24.1772,31.6716 26.5,30.5C 27.6139,31.723 27.7805,33.0563 27,34.5C 24.9361,35.5914 22.7695,35.7581 20.5,35C 19.6198,33.6439 19.2865,32.1439 19.5,30.5 Z"/></g>
<g><path style="opacity:1" fill="#daecfc" d="M 14.5,34.5 C 17.2335,35.721 20.0669,36.721 23,37.5C 26.3225,36.7243 29.4892,35.891 32.5,35C 36.9192,37.2421 39.5859,40.7421 40.5,45.5C 35.4457,44.3165 30.4457,42.8165 25.5,41C 20.8627,40.1706 16.196,39.6706 11.5,39.5C 11.5,47.5 11.5,55.5 11.5,63.5C 9.5,63.5 7.5,63.5 5.5,63.5C 5.33379,57.1579 5.50046,50.8246 6,44.5C 7.97791,40.3619 10.8112,37.0286 14.5,34.5 Z"/></g>
<g><path style="opacity:1" fill="#dbedfc" d="M 56.5,35.5 C 59.5047,36.7237 62.5047,36.7237 65.5,35.5C 68.9013,36.4415 71.4013,38.4415 73,41.5C 73.4997,48.8258 73.6663,56.1591 73.5,63.5C 71.5,63.5 69.5,63.5 67.5,63.5C 67.5,55.5 67.5,47.5 67.5,39.5C 61.7186,39.4789 56.0519,39.9789 50.5,41C 51.9227,38.4687 53.9227,36.6353 56.5,35.5 Z"/></g>
<g><path style="opacity:1" fill="#97cbfc" d="M 36.5,47.5 C 35.5067,56.3178 35.1734,65.3178 35.5,74.5C 28.5845,71.244 21.2512,69.5773 13.5,69.5C 13.5,60.1667 13.5,50.8333 13.5,41.5C 21.7979,41.4952 29.4646,43.4952 36.5,47.5 Z"/></g>
<g><path style="opacity:1" fill="#97cbfc" d="M 43.5,73.5 C 43.8264,64.6506 43.493,55.9839 42.5,47.5C 49.5989,43.7408 57.2656,41.7408 65.5,41.5C 65.5,50.8333 65.5,60.1667 65.5,69.5C 57.9174,69.5635 50.584,70.8969 43.5,73.5 Z"/></g>
<g><path style="opacity:1" fill="#b5dbfd" d="M 36.5,47.5 C 38.5,47.5 40.5,47.5 42.5,47.5C 43.493,55.9839 43.8264,64.6506 43.5,73.5C 41.1186,75.6395 38.4519,75.9729 35.5,74.5C 35.1734,65.3178 35.5067,56.3178 36.5,47.5 Z"/></g>
</svg>
