<?xml version="1.0" encoding="UTF-8"?>
<!DOCTYPE svg PUBLIC "-//W3C//DTD SVG 1.1//EN" "http://www.w3.org/Graphics/SVG/1.1/DTD/svg11.dtd">
<svg xmlns="http://www.w3.org/2000/svg" version="1.1" width="80px" height="80px" style="shape-rendering:geometricPrecision; text-rendering:geometricPrecision; image-rendering:optimizeQuality; fill-rule:evenodd; clip-rule:evenodd" xmlns:xlink="http://www.w3.org/1999/xlink">
<g><path style="opacity:0.882" fill="#4b8bc9" d="M 35.5,3.5 C 37.5,3.5 39.5,3.5 41.5,3.5C 41.9376,7.07229 42.6042,10.5723 43.5,14C 54.0933,17.6416 64.5933,21.4749 75,25.5C 75.6667,27.1667 75.6667,28.8333 75,30.5C 70.5236,30.8007 66.1902,29.8007 62,27.5C 61.5003,35.4931 61.3336,43.4931 61.5,51.5C 71.3204,54.4847 74.1537,60.818 70,70.5C 65.0528,75.6846 59.2194,76.8513 52.5,74C 47.3154,69.0528 46.1487,63.2194 49,56.5C 51.5497,52.8083 55.0497,51.1416 59.5,51.5C 59.8312,43.1401 59.4979,34.8068 58.5,26.5C 52.1998,24.4564 46.0332,22.1231 40,19.5C 39.1178,24.7707 39.9511,29.7707 42.5,34.5C 45.4281,35.4841 48.4281,35.8174 51.5,35.5C 51.082,38.4389 49.582,40.7722 47,42.5C 46.9565,45.4752 47.1231,48.4752 47.5,51.5C 44.309,51.2378 41.6423,49.9045 39.5,47.5C 37.3577,49.9045 34.691,51.2378 31.5,51.5C 33.9124,46.1465 32.7458,41.8131 28,38.5C 27.5172,37.552 27.3505,36.552 27.5,35.5C 30.1667,35.5 32.8333,35.5 35.5,35.5C 36.4964,30.5374 36.6631,25.5374 36,20.5C 30.3378,23.055 24.5045,25.2216 18.5,27C 17.5175,35.081 17.1842,43.2476 17.5,51.5C 20.6492,51.2114 23.6492,51.7114 26.5,53C 28.0368,54.1096 28.7035,55.6096 28.5,57.5C 19.6912,59.4034 18.3578,63.5701 24.5,70C 25.448,70.4828 26.448,70.6495 27.5,70.5C 27.67,71.8221 27.3366,72.9887 26.5,74C 19.8459,77.3816 14.0126,76.2149 9,70.5C 5.50255,62.3302 7.50255,55.9969 15,51.5C 15.8315,43.8117 15.6648,36.145 14.5,28.5C 11.0724,30.3861 7.57245,31.0528 4,30.5C 2.86031,27.4718 3.69364,25.3051 6.5,24C 15.7946,20.4017 25.1279,16.9017 34.5,13.5C 35.487,10.2317 35.8204,6.89838 35.5,3.5 Z"/></g>
<g><path style="opacity:1" fill="#a9d2f7" d="M 37.5,5.5 C 39.1038,8.40322 40.1038,11.7366 40.5,15.5C 51.6392,19.3785 62.6392,23.5452 73.5,28C 61.7547,25.0318 50.0881,21.5318 38.5,17.5C 27.5824,21.5293 16.5824,25.0293 5.5,28C 15.5771,23.2982 25.9104,19.1315 36.5,15.5C 37.487,12.2317 37.8204,8.89838 37.5,5.5 Z"/></g>
<g><path style="opacity:1" fill="#d8ebfb" d="M 38.5,32.5 C 39.9313,33.7804 40.5979,35.4471 40.5,37.5C 47.144,36.4193 48.3107,37.7526 44,41.5C 44,43.5 44,45.5 44,47.5C 42.414,46.624 40.914,45.624 39.5,44.5C 38.086,45.624 36.586,46.624 35,47.5C 35,45.5 35,43.5 35,41.5C 30.3904,38.2037 31.2238,36.537 37.5,36.5C 38.2458,35.2638 38.5792,33.9305 38.5,32.5 Z"/></g>
<g><path style="opacity:1" fill="#d7eafb" d="M 16.5,53.5 C 19.3198,53.2475 21.9865,53.7475 24.5,55C 18.8309,57.8151 16.9976,62.3151 19,68.5C 20.353,69.6853 21.5197,71.0186 22.5,72.5C 15.0027,74.2418 10.6693,71.2418 9.5,63.5C 10.2879,59.0515 12.6212,55.7182 16.5,53.5 Z"/></g>
<g><path style="opacity:1" fill="#d3e7f9" d="M 55.5,53.5 C 67.824,53.4888 71.6574,59.1555 67,70.5C 59.782,75.3566 54.1153,74.0232 50,66.5C 48.8312,60.8527 50.6645,56.5194 55.5,53.5 Z"/></g>
<g><path style="opacity:1" fill="#5792cc" d="M 56.5,55.5 C 64.6577,54.8229 68.1577,58.4895 67,66.5C 64.7742,70.8608 61.2742,72.3608 56.5,71C 52.1392,68.7742 50.6392,65.2742 52,60.5C 53.025,58.313 54.525,56.6464 56.5,55.5 Z"/></g>
<g><path style="opacity:1" fill="#b1d8fb" d="M 56.5,57.5 C 64.5204,57.3918 66.8538,60.8918 63.5,68C 57.7867,71.0594 54.4533,69.3927 53.5,63C 53.8627,60.8077 54.8627,58.9744 56.5,57.5 Z"/></g>
</svg>
