<?xml version="1.0" encoding="UTF-8"?>
<!DOCTYPE svg PUBLIC "-//W3C//DTD SVG 1.1//EN" "http://www.w3.org/Graphics/SVG/1.1/DTD/svg11.dtd">
<svg xmlns="http://www.w3.org/2000/svg" version="1.1" width="80px" height="80px" style="shape-rendering:geometricPrecision; text-rendering:geometricPrecision; image-rendering:optimizeQuality; fill-rule:evenodd; clip-rule:evenodd" xmlns:xlink="http://www.w3.org/1999/xlink">
<g><path style="opacity:0.863" fill="#4a8cc8" d="M 31.5,1.5 C 39.0644,0.0897416 41.5644,3.08974 39,10.5C 38.6258,11.4162 38.1258,12.2496 37.5,13C 29.925,14.9214 27.425,12.0881 30,4.5C 30.5133,3.47344 31.0133,2.47344 31.5,1.5 Z"/></g>
<g><path style="opacity:0.801" fill="#4d8ec9" d="M 21.5,2.5 C 27.3668,2.20559 29.0334,4.87226 26.5,10.5C 24.3561,11.9535 22.5227,11.6201 21,9.5C 20.4436,7.11521 20.6103,4.78188 21.5,2.5 Z"/></g>
<g><path style="opacity:0.76" fill="#518fcc" d="M 13.5,4.5 C 16.9304,3.75528 18.597,5.08862 18.5,8.5C 17.6947,12.5141 15.8614,13.1807 13,10.5C 12.3224,8.40239 12.4891,6.40239 13.5,4.5 Z"/></g>
<g><path style="opacity:1" fill="#d3e7f9" d="M 33.5,3.5 C 37.7966,4.28789 38.63,6.62122 36,10.5C 33.2003,12.1179 31.7003,11.2845 31.5,8C 31.5186,6.16698 32.1852,4.66698 33.5,3.5 Z"/></g>
<g><path style="opacity:1" fill="#cce2f7" d="M 23.5,4.5 C 24.5862,4.61998 25.2528,5.28665 25.5,6.5C 25.1667,7.16667 24.8333,7.83333 24.5,8.5C 23.5713,7.31116 23.238,5.97782 23.5,4.5 Z"/></g>
<g><path style="opacity:0.809" fill="#4989c7" d="M 10.5,14.5 C 9.04125,14.5674 7.70792,14.2341 6.5,13.5C 4.84638,10.7945 5.51305,8.79451 8.5,7.5C 11.5026,9.17811 12.1693,11.5114 10.5,14.5 Z"/></g>
<g><path style="opacity:0.836" fill="#4688c7" d="M 6.5,13.5 C 6.5,14.8333 6.5,16.1667 6.5,17.5C 4.83333,17.5 3.16667,17.5 1.5,17.5C 1.5,15.8333 1.5,14.1667 1.5,12.5C 3.29152,12.366 4.95819,12.6993 6.5,13.5 Z"/></g>
<g><path style="opacity:0.854" fill="#4e8dca" d="M 10.5,14.5 C 17.9994,12.811 25.3327,13.311 32.5,16C 33.7014,16.9025 34.5348,18.0692 35,19.5C 35.6667,22.8333 35.6667,26.1667 35,29.5C 32.6667,32.5 30.3333,35.5 28,38.5C 27.6667,44.1667 27.3333,49.8333 27,55.5C 25.8333,58 24,59.8333 21.5,61C 12.4254,63.2758 6.92538,59.7758 5,50.5C 3.48734,41.5531 3.15401,32.5531 4,23.5C 5.64284,20.0386 7.8095,17.0386 10.5,14.5 Z"/></g>
<g><path style="opacity:1" fill="#dceefd" d="M 14.5,15.5 C 19.2675,15.1908 23.9342,15.6908 28.5,17C 34.0688,20.5141 34.9021,25.0141 31,30.5C 28.2305,32.6011 26.2305,35.2677 25,38.5C 25.2188,43.4848 25.2188,48.4848 25,53.5C 19.5812,61.41 14.2478,61.41 9,53.5C 5.62845,43.3371 4.96178,33.0038 7,22.5C 8.74238,19.2543 11.2424,16.921 14.5,15.5 Z"/></g>
<g><path style="opacity:0.862" fill="#4a8dc8" d="M 40.5,17.5 C 48.8758,17.0437 51.5425,20.877 48.5,29C 42.2589,31.1964 39.2589,29.0298 39.5,22.5C 39.5916,20.7422 39.925,19.0755 40.5,17.5 Z"/></g>
<g><path style="opacity:0.782" fill="#4d8ec9" d="M 52.5,18.5 C 57.6589,18.1363 59.4922,20.4696 58,25.5C 56.4773,27.6201 54.6439,27.9535 52.5,26.5C 51.2706,23.8013 51.2706,21.1346 52.5,18.5 Z"/></g>
<g><path style="opacity:1" fill="#d3e7f9" d="M 42.5,19.5 C 47.2624,20.0925 48.5957,22.5925 46.5,27C 43.2854,27.502 41.6188,26.002 41.5,22.5C 41.685,21.4163 42.0183,20.4163 42.5,19.5 Z"/></g>
<g><path style="opacity:0.866" fill="#508fcb" d="M 61.5,20.5 C 66.0685,20.0826 67.5685,22.0826 66,26.5C 63.1386,29.1807 61.3053,28.5141 60.5,24.5C 60.6233,23.0755 60.9566,21.7421 61.5,20.5 Z"/></g>
<g><path style="opacity:1" fill="#c9e0f6" d="M 53.5,20.5 C 54.5862,20.62 55.2528,21.2867 55.5,22.5C 55.1667,23.1667 54.8333,23.8333 54.5,24.5C 53.5713,23.3112 53.238,21.9778 53.5,20.5 Z"/></g>
<g><path style="opacity:0.794" fill="#4b8ac7" d="M 72.5,29.5 C 71.2921,30.2341 69.9587,30.5674 68.5,30.5C 66.8307,27.5114 67.4974,25.1781 70.5,23.5C 73.4869,24.7945 74.1536,26.7945 72.5,29.5 Z"/></g>
<g><path style="opacity:0.79" fill="#4688c7" d="M 72.5,29.5 C 74.0418,28.6993 75.7085,28.366 77.5,28.5C 77.5,30.1667 77.5,31.8333 77.5,33.5C 75.8333,33.5 74.1667,33.5 72.5,33.5C 72.5,32.1667 72.5,30.8333 72.5,29.5 Z"/></g>
<g><path style="opacity:0.87" fill="#4d8cc9" d="M 68.5,30.5 C 71.1905,33.0386 73.3572,36.0386 75,39.5C 76.0851,49.6378 75.4184,59.6378 73,69.5C 70.3699,77.0645 65.2032,79.5645 57.5,77C 55,75.8333 53.1667,74 52,71.5C 51.6667,65.8333 51.3333,60.1667 51,54.5C 48.6667,51.5 46.3333,48.5 44,45.5C 41.4208,37.65 43.9208,32.4833 51.5,30C 57.2179,29.2599 62.8846,29.4265 68.5,30.5 Z"/></g>
<g><path style="opacity:1" fill="#dcedfc" d="M 52.5,31.5 C 57.2675,31.1908 61.9342,31.6908 66.5,33C 69.7447,34.9806 71.9114,37.8139 73,41.5C 74.0317,51.8664 72.6983,61.8664 69,71.5C 63.2639,77.1573 58.2639,76.4906 54,69.5C 53.6667,63.8333 53.3333,58.1667 53,52.5C 51.7101,50.208 50.0435,48.208 48,46.5C 43.7879,39.7037 45.2879,34.7037 52.5,31.5 Z"/></g>
</svg>
