<?xml version="1.0" encoding="UTF-8"?>
<!DOCTYPE svg PUBLIC "-//W3C//DTD SVG 1.1//EN" "http://www.w3.org/Graphics/SVG/1.1/DTD/svg11.dtd">
<svg xmlns="http://www.w3.org/2000/svg" version="1.1" width="80px" height="80px" style="shape-rendering:geometricPrecision; text-rendering:geometricPrecision; image-rendering:optimizeQuality; fill-rule:evenodd; clip-rule:evenodd" xmlns:xlink="http://www.w3.org/1999/xlink">
<g><path style="opacity:0.887" fill="#528fca" d="M 67.5,1.5 C 76.0001,-0.167361 79.1668,3.16597 77,11.5C 75.3149,13.0175 73.8149,14.6841 72.5,16.5C 76.9331,21.9706 76.2664,26.8039 70.5,31C 71.7084,34.6496 71.2084,38.1496 69,41.5C 57.1667,53.3333 45.3333,65.1667 33.5,77C 30.8333,77.6667 28.1667,77.6667 25.5,77C 17.6667,69.1667 9.83333,61.3333 2,53.5C 1.33333,50.8333 1.33333,48.1667 2,45.5C 13.8333,33.6667 25.6667,21.8333 37.5,10C 40.8504,7.79161 44.3504,7.29161 48,8.5C 52.1961,2.73359 57.0294,2.06692 62.5,6.5C 64.5212,5.14548 66.1879,3.47881 67.5,1.5 Z"/></g>
<g><path style="opacity:1" fill="#b2d8fb" d="M 69.5,3.5 C 72.8641,2.87279 74.8641,4.20613 75.5,7.5C 73.5815,10.7604 71.2482,13.7604 68.5,16.5C 70.3722,18.5351 72.0389,20.7017 73.5,23C 73.0535,25.7414 71.5535,27.5747 69,28.5C 62.1667,23 56,16.8333 50.5,10C 51.4253,7.44648 53.2586,5.94648 56,5.5C 58.2983,6.96111 60.4649,8.62778 62.5,10.5C 65.1878,8.47891 67.5211,6.14557 69.5,3.5 Z"/></g>
<g><path style="opacity:1" fill="#ddeefd" d="M 41.5,10.5 C 44.3198,10.2475 46.9865,10.7475 49.5,12C 55.3333,17.8333 61.1667,23.6667 67,29.5C 68.4217,32.0301 68.755,34.6967 68,37.5C 65.3702,41.1317 62.3702,44.465 59,47.5C 55.6514,43.9842 52.1514,40.6508 48.5,37.5C 47.479,38.0016 47.3123,38.6683 48,39.5C 51.1667,42.6667 54.3333,45.8333 57.5,49C 56,50.5 54.5,52 53,53.5C 49.6514,49.9842 46.1514,46.6508 42.5,43.5C 41.479,44.0016 41.3123,44.6683 42,45.5C 45.1667,48.6667 48.3333,51.8333 51.5,55C 50,56.5 48.5,58 47,59.5C 43.6514,55.9842 40.1514,52.6508 36.5,49.5C 35.479,50.0016 35.3123,50.6683 36,51.5C 39.1667,54.6667 42.3333,57.8333 45.5,61C 44,62.5 42.5,64 41,65.5C 37.6514,61.9842 34.1514,58.6508 30.5,55.5C 29.479,56.0016 29.3123,56.6683 30,57.5C 33.1667,60.6667 36.3333,63.8333 39.5,67C 36.5804,70.4274 33.2471,73.2608 29.5,75.5C 20.5751,68.0788 12.0751,60.0788 4,51.5C 3.33333,50.1667 3.33333,48.8333 4,47.5C 16.3951,34.9375 28.8951,22.6041 41.5,10.5 Z"/></g>
<g><path style="opacity:1" fill="#fbfdff" d="M 43.5,17.5 C 45.0281,17.5173 45.5281,18.184 45,19.5C 34.9859,29.681 24.8192,39.681 14.5,49.5C 13.479,48.9984 13.3123,48.3317 14,47.5C 24.0355,37.6317 33.8688,27.6317 43.5,17.5 Z"/></g>
</svg>
