<?xml version="1.0" encoding="UTF-8"?>
<!DOCTYPE svg PUBLIC "-//W3C//DTD SVG 1.1//EN" "http://www.w3.org/Graphics/SVG/1.1/DTD/svg11.dtd">
<svg xmlns="http://www.w3.org/2000/svg" version="1.1" width="80px" height="80px" style="shape-rendering:geometricPrecision; text-rendering:geometricPrecision; image-rendering:optimizeQuality; fill-rule:evenodd; clip-rule:evenodd" xmlns:xlink="http://www.w3.org/1999/xlink">
<g><path style="opacity:0.996" fill="#4888c8" d="M 31.5,1.5 C 34.1667,1.5 36.8333,1.5 39.5,1.5C 39.5,4.16667 39.5,6.83333 39.5,9.5C 47.5069,9.33362 55.5069,9.50029 63.5,10C 68.057,14.0539 72.057,18.5539 75.5,23.5C 72.057,28.4461 68.057,32.9461 63.5,37C 55.5069,37.4997 47.5069,37.6664 39.5,37.5C 39.5,50.8333 39.5,64.1667 39.5,77.5C 36.8333,77.5 34.1667,77.5 31.5,77.5C 31.5,64.1667 31.5,50.8333 31.5,37.5C 22.1667,37.5 12.8333,37.5 3.5,37.5C 3.5,28.1667 3.5,18.8333 3.5,9.5C 12.8333,9.5 22.1667,9.5 31.5,9.5C 31.5,6.83333 31.5,4.16667 31.5,1.5 Z"/></g>
<g><path style="opacity:1" fill="#def0fd" d="M 33.5,3.5 C 34.8333,3.5 36.1667,3.5 37.5,3.5C 37.5,5.5 37.5,7.5 37.5,9.5C 36.1667,9.5 34.8333,9.5 33.5,9.5C 33.5,7.5 33.5,5.5 33.5,3.5 Z"/></g>
<g><path style="opacity:1" fill="#b5dbfd" d="M 5.5,11.5 C 24.1696,11.3334 42.8363,11.5001 61.5,12C 65.349,15.6818 69.0156,19.5151 72.5,23.5C 69.0156,27.4849 65.349,31.3182 61.5,35C 42.8363,35.4999 24.1696,35.6666 5.5,35.5C 5.5,27.5 5.5,19.5 5.5,11.5 Z"/></g>
<g><path style="opacity:1" fill="#def0fd" d="M 33.5,37.5 C 34.8333,37.5 36.1667,37.5 37.5,37.5C 37.5,50.1667 37.5,62.8333 37.5,75.5C 36.1667,75.5 34.8333,75.5 33.5,75.5C 33.5,62.8333 33.5,50.1667 33.5,37.5 Z"/></g>
</svg>
