<?xml version="1.0" encoding="UTF-8"?>
<!DOCTYPE svg PUBLIC "-//W3C//DTD SVG 1.1//EN" "http://www.w3.org/Graphics/SVG/1.1/DTD/svg11.dtd">
<svg xmlns="http://www.w3.org/2000/svg" version="1.1" width="80px" height="80px" style="shape-rendering:geometricPrecision; text-rendering:geometricPrecision; image-rendering:optimizeQuality; fill-rule:evenodd; clip-rule:evenodd" xmlns:xlink="http://www.w3.org/1999/xlink">
<g><path style="opacity:0.849" fill="#4b8ac8" d="M 35.5,1.5 C 46.8179,0.989989 49.4846,5.48999 43.5,15C 32.1055,15.8027 29.4388,11.3027 35.5,1.5 Z"/></g>
<g><path style="opacity:1" fill="#d7eafb" d="M 37.5,3.5 C 42.6646,3.16192 44.8313,5.49525 44,10.5C 41,14.5 38,14.5 35,10.5C 34.162,7.51926 34.9953,5.18593 37.5,3.5 Z"/></g>
<g><path style="opacity:0.881" fill="#4c8bc9" d="M 30.5,17.5 C 36.5092,17.3338 42.5092,17.5005 48.5,18C 49.8333,18.6667 51.1667,19.3333 52.5,20C 54.6275,23.7546 56.6275,27.5879 58.5,31.5C 62.5859,33.96 66.7525,36.2934 71,38.5C 71.6667,40.5 71.6667,42.5 71,44.5C 69.9383,45.0968 68.7716,45.4302 67.5,45.5C 62.0422,43.8552 56.8755,41.5219 52,38.5C 51.2506,39.635 51.4173,40.635 52.5,41.5C 55.914,43.9574 59.414,46.2907 63,48.5C 63.9439,51.3471 63.4439,53.8471 61.5,56C 57.5,58 53.5,60 49.5,62C 53.4441,63.9652 54.4441,66.9652 52.5,71C 47.7421,71.633 43.4088,70.4664 39.5,67.5C 37.1667,68.6667 34.8333,69.8333 32.5,71C 26.3333,72.8333 24.1667,70.6667 26,64.5C 27.2547,63.7894 28.4214,62.956 29.5,62C 25.5,60 21.5,58 17.5,56C 14.8333,53 14.8333,50 17.5,47C 20.5,45.1667 23.5,43.3333 26.5,41.5C 27.5827,40.635 27.7494,39.635 27,38.5C 22.912,40.7942 18.7453,42.9609 14.5,45C 8.33333,46.8333 6.16667,44.6667 8,38.5C 11.7546,36.3725 15.5879,34.3725 19.5,32.5C 21.9209,28.6597 24.0875,24.6597 26,20.5C 27.6516,19.6006 29.1516,18.6006 30.5,17.5 Z"/></g>
<g><path style="opacity:1" fill="#d4e9fa" d="M 56.5,34.5 C 60.5562,36.0252 64.5562,37.8585 68.5,40C 69.8413,41.8265 69.3413,42.9931 67,43.5C 62.5633,42.0374 58.73,39.704 55.5,36.5C 55.8627,35.8165 56.1961,35.1499 56.5,34.5 Z"/></g>
<g><path style="opacity:1" fill="#d4e8fa" d="M 19.5,34.5 C 22.694,34.1756 23.694,35.3422 22.5,38C 19.3388,39.4131 16.3388,41.0797 13.5,43C 9.35676,43.3802 8.69009,42.0469 11.5,39C 14.3911,37.7258 17.0578,36.2258 19.5,34.5 Z"/></g>
<g><path style="opacity:1" fill="#96cafc" d="M 32.5,19.5 C 36.8461,19.3343 41.1794,19.501 45.5,20C 51.2491,21.628 54.5824,25.4614 55.5,31.5C 55.363,33.1073 54.6964,34.4406 53.5,35.5C 52.3378,33.1756 51.1711,30.8422 50,28.5C 49.3333,33.1667 49.3333,37.8333 50,42.5C 53.6667,45.1667 57.3333,47.8333 61,50.5C 61.7494,51.635 61.5827,52.635 60.5,53.5C 55.7277,55.9696 50.8944,58.3029 46,60.5C 44.7753,60.1377 43.6086,59.6377 42.5,59C 45.1667,57.3333 47.8333,55.6667 50.5,54C 46.5442,53.963 42.8775,55.1297 39.5,57.5C 35.86,54.8326 31.86,53.6659 27.5,54C 30.6612,55.4131 33.6612,57.0797 36.5,59C 35.3914,59.6377 34.2247,60.1377 33,60.5C 28.1056,58.3029 23.2723,55.9696 18.5,53.5C 17.4173,52.635 17.2506,51.635 18,50.5C 21.6667,47.8333 25.3333,45.1667 29,42.5C 29.6667,37.8333 29.6667,33.1667 29,28.5C 27.8289,30.8422 26.6622,33.1756 25.5,35.5C 24.3036,34.4406 23.637,33.1073 23.5,31.5C 24.6122,25.8843 27.6122,21.8843 32.5,19.5 Z"/></g>
<g><path style="opacity:1" fill="#d5e9fa" d="M 38.5,60.5 C 41.462,60.1167 42.462,61.1167 41.5,63.5C 38.0061,65.0795 34.6728,66.9128 31.5,69C 27.3568,69.3802 26.6901,68.0469 29.5,65C 32.8234,63.9601 35.8234,62.4601 38.5,60.5 Z"/></g>
<g><path style="opacity:1" fill="#d2e7f9" d="M 44.5,63.5 C 48.2928,63.4404 50.4594,65.1071 51,68.5C 50.4387,69.0219 49.772,69.3552 49,69.5C 46.7661,68.2985 44.5994,66.9652 42.5,65.5C 43.2427,64.8182 43.9094,64.1515 44.5,63.5 Z"/></g>
<g><path style="opacity:0.987" fill="#4787c6" d="M 21.5,75.5 C 33.5185,75.1677 45.5185,75.501 57.5,76.5C 51.5,76.8333 45.5,77.1667 39.5,77.5C 33.1275,77.496 27.1275,76.8293 21.5,75.5 Z"/></g>
</svg>
