<?xml version="1.0" encoding="UTF-8"?>
<!DOCTYPE svg PUBLIC "-//W3C//DTD SVG 1.1//EN" "http://www.w3.org/Graphics/SVG/1.1/DTD/svg11.dtd">
<svg xmlns="http://www.w3.org/2000/svg" version="1.1" width="80px" height="80px" style="shape-rendering:geometricPrecision; text-rendering:geometricPrecision; image-rendering:optimizeQuality; fill-rule:evenodd; clip-rule:evenodd" xmlns:xlink="http://www.w3.org/1999/xlink">
<g><path style="opacity:0.891" fill="#4b8bc9" d="M 34.5,5.5 C 40.3907,4.40413 45.3907,5.90413 49.5,10C 58.6667,9.83333 63.1667,14.3333 63,23.5C 68.3894,29.4009 68.8894,35.7343 64.5,42.5C 68.8333,47.1667 73.1667,51.8333 77.5,56.5C 73.764,58.3526 69.764,59.5192 65.5,60C 63.7723,64.455 62.1056,68.955 60.5,73.5C 55.8041,68.9684 50.9707,64.6351 46,60.5C 41.1573,61.5604 36.324,61.7271 31.5,61C 27.3184,65.3487 22.9851,69.5154 18.5,73.5C 16.6474,69.764 15.4808,65.764 15,61.5C 10.545,59.7723 6.045,58.1056 1.5,56.5C 5.83333,51.8333 10.1667,47.1667 14.5,42.5C 10.1106,35.7343 10.6106,29.4009 16,23.5C 15.8333,14.3333 20.3333,9.83333 29.5,10C 31.0632,8.26401 32.7299,6.76401 34.5,5.5 Z"/></g>
<g><path style="opacity:1" fill="#dbedfc" d="M 36.5,7.5 C 41.0838,6.79284 44.7505,8.29284 47.5,12C 56.6667,11.8333 61.1667,16.3333 61,25.5C 67,30.8333 67,36.1667 61,41.5C 61.1667,50.6667 56.6667,55.1667 47.5,55C 42.1667,61 36.8333,61 31.5,55C 22.3333,55.1667 17.8333,50.6667 18,41.5C 12,36.1667 12,30.8333 18,25.5C 17.8333,16.3333 22.3333,11.8333 31.5,12C 33.0632,10.264 34.7299,8.76401 36.5,7.5 Z"/></g>
<g><path style="opacity:1" fill="#b6dcfe" d="M 34.5,15.5 C 50.1574,14.6584 57.6574,21.9917 57,37.5C 53.3381,48.2524 45.8381,52.7524 34.5,51C 21.4785,44.7895 18.3119,35.2895 25,22.5C 27.7901,19.535 30.9567,17.2016 34.5,15.5 Z"/></g>
<g><path style="opacity:1" fill="#95cafb" d="M 15.5,45.5 C 17.4589,53.1114 22.4589,57.1114 30.5,57.5C 27.1667,61.5 23.5,65.1667 19.5,68.5C 18.3503,65.2532 17.517,61.9199 17,58.5C 13.449,57.7665 9.94902,56.7665 6.5,55.5C 9.52215,52.1467 12.5222,48.8134 15.5,45.5 Z"/></g>
<g><path style="opacity:1" fill="#96cafb" d="M 62.5,45.5 C 65.9641,48.4625 69.2975,51.6291 72.5,55C 69.3522,56.6047 66.0189,57.6047 62.5,58C 61.7107,61.5946 60.544,65.0946 59,68.5C 55.3176,64.9848 51.8176,61.3181 48.5,57.5C 56.6297,57.3614 61.2964,53.3614 62.5,45.5 Z"/></g>
</svg>
