<?xml version="1.0" encoding="UTF-8"?>
<!DOCTYPE svg PUBLIC "-//W3C//DTD SVG 1.1//EN" "http://www.w3.org/Graphics/SVG/1.1/DTD/svg11.dtd">
<svg xmlns="http://www.w3.org/2000/svg" version="1.1" width="80px" height="80px" style="shape-rendering:geometricPrecision; text-rendering:geometricPrecision; image-rendering:optimizeQuality; fill-rule:evenodd; clip-rule:evenodd" xmlns:xlink="http://www.w3.org/1999/xlink">
<g><path style="opacity:0.949" fill="#4c8cc9" d="M 1.5,5.5 C 26.8333,5.5 52.1667,5.5 77.5,5.5C 77.6665,17.8378 77.4999,30.1712 77,42.5C 73.2386,53.9188 66.7386,63.4188 57.5,71C 51.6993,72.9953 45.6993,73.8286 39.5,73.5C 29.256,75.1555 20.756,72.1555 14,64.5C 8.44209,58.0534 4.44209,50.7201 2,42.5C 1.50012,30.1712 1.33346,17.8378 1.5,5.5 Z"/></g>
<g><path style="opacity:1" fill="#deeffd" d="M 3.5,7.5 C 10.5888,7.11564 17.5888,7.61564 24.5,9C 28.0008,11.3346 29.6675,14.6679 29.5,19C 29.7371,23.6557 28.0704,27.3224 24.5,30C 17.5888,31.3844 10.5888,31.8844 3.5,31.5C 3.5,23.5 3.5,15.5 3.5,7.5 Z"/></g>
<g><path style="opacity:1" fill="#dceefd" d="M 47.5,13.5 C 45.8008,13.3398 44.1341,13.5065 42.5,14C 42.7205,15.7985 43.0539,17.6318 43.5,19.5C 40.8333,20.8333 40.8333,22.1667 43.5,23.5C 43.2907,24.086 42.9574,24.586 42.5,25C 44.1341,25.4935 45.8008,25.6602 47.5,25.5C 49.6411,28.4718 52.3078,30.9718 55.5,33C 62.1667,33.3333 68.8333,33.6667 75.5,34C 59.0959,40.6338 51.7625,52.8005 53.5,70.5C 44.1622,71.7987 34.8288,71.7987 25.5,70.5C 27.2375,52.8005 19.9041,40.6338 3.5,34C 10.9115,33.8917 18.2448,33.225 25.5,32C 27.7341,29.9373 29.7341,27.7706 31.5,25.5C 33.5273,25.6621 35.5273,25.4955 37.5,25C 36.2889,23.8869 36.2889,22.7202 37.5,21.5C 34.8333,20.1667 34.8333,18.8333 37.5,17.5C 36.7542,16.2638 36.4208,14.9305 36.5,13.5C 34.8333,13.5 33.1667,13.5 31.5,13.5C 30.0686,11.563 28.4019,9.72969 26.5,8C 35.1667,7.33333 43.8333,7.33333 52.5,8C 50.5981,9.72969 48.9314,11.563 47.5,13.5 Z"/></g>
<g><path style="opacity:1" fill="#ddeffd" d="M 55.5,7.5 C 62.1667,7.5 68.8333,7.5 75.5,7.5C 75.5,15.5 75.5,23.5 75.5,31.5C 68.825,31.6663 62.1583,31.4996 55.5,31C 49.9395,26.5094 48.1062,20.6761 50,13.5C 51.3597,10.9774 53.193,8.97739 55.5,7.5 Z"/></g>
<g><path style="opacity:1" fill="#9ccefd" d="M 31.5,13.5 C 33.1667,13.5 34.8333,13.5 36.5,13.5C 36.4208,14.9305 36.7542,16.2638 37.5,17.5C 34.8333,18.8333 34.8333,20.1667 37.5,21.5C 36.2889,22.7202 36.2889,23.8869 37.5,25C 35.5273,25.4955 33.5273,25.6621 31.5,25.5C 31.5,21.5 31.5,17.5 31.5,13.5 Z"/></g>
<g><path style="opacity:1" fill="#99ccfd" d="M 47.5,13.5 C 47.5,17.5 47.5,21.5 47.5,25.5C 45.8008,25.6602 44.1341,25.4935 42.5,25C 42.9574,24.586 43.2907,24.086 43.5,23.5C 40.8333,22.1667 40.8333,20.8333 43.5,19.5C 43.0539,17.6318 42.7205,15.7985 42.5,14C 44.1341,13.5065 45.8008,13.3398 47.5,13.5 Z"/></g>
<g><path style="opacity:1" fill="#95c9fb" d="M 3.5,36.5 C 18.0658,42.3007 24.3992,52.9674 22.5,68.5C 12.0556,60.2784 5.72226,49.6117 3.5,36.5 Z"/></g>
<g><path style="opacity:1" fill="#9bcdfd" d="M 37.5,33.5 C 41.2509,33.0824 43.4176,34.749 44,38.5C 50.3978,37.417 51.8978,39.7503 48.5,45.5C 51.8978,51.2497 50.3978,53.583 44,52.5C 42.7616,57.6371 40.0949,58.6371 36,55.5C 35.6667,54.5 35.3333,53.5 35,52.5C 28.6022,53.583 27.1022,51.2497 30.5,45.5C 27.1022,39.7503 28.6022,37.417 35,38.5C 35.3661,36.5483 36.1995,34.8816 37.5,33.5 Z"/></g>
<g><path style="opacity:1" fill="#95c9fb" d="M 73.5,36.5 C 74.6491,36.7911 75.3158,37.6244 75.5,39C 72.1782,50.8123 65.8449,60.6457 56.5,68.5C 54.0693,57.818 57.0693,48.9847 65.5,42C 68.4068,40.3909 71.0734,38.5576 73.5,36.5 Z"/></g>
<g><path style="opacity:1" fill="#f9fbfe" d="M 37.5,41.5 C 43.4877,41.664 44.821,44.164 41.5,49C 35.4034,49.1475 34.0701,46.6475 37.5,41.5 Z"/></g>
</svg>
