<?xml version="1.0" encoding="UTF-8"?>
<!DOCTYPE svg PUBLIC "-//W3C//DTD SVG 1.1//EN" "http://www.w3.org/Graphics/SVG/1.1/DTD/svg11.dtd">
<svg xmlns="http://www.w3.org/2000/svg" version="1.1" width="80px" height="80px" style="shape-rendering:geometricPrecision; text-rendering:geometricPrecision; image-rendering:optimizeQuality; fill-rule:evenodd; clip-rule:evenodd" xmlns:xlink="http://www.w3.org/1999/xlink">
<g><path style="opacity:0.869" fill="#4d8dc9" d="M 43.5,51.5 C 43.3284,50.5084 43.6618,49.8417 44.5,49.5C 51.0838,53.6245 58.0838,56.9578 65.5,59.5C 68.492,59.0201 69.6586,57.3534 69,54.5C 47.5,46.3333 32.6667,31.5 24.5,10C 21.8751,9.27653 20.2084,10.2765 19.5,13C 23.6022,26.0493 30.6022,37.216 40.5,46.5C 39.8333,46.5 39.5,46.8333 39.5,47.5C 36.1877,44.8544 33.1877,41.8544 30.5,38.5C 28.5986,40.0063 26.9319,41.6729 25.5,43.5C 25.5,42.8333 25.5,42.1667 25.5,41.5C 26.2341,40.2921 26.5674,38.9587 26.5,37.5C 15.5927,36.7031 8.09273,41.3698 4,51.5C 3.24465,55.2554 3.41131,58.9221 4.5,62.5C 3.50838,62.3284 2.84171,62.6618 2.5,63.5C -0.565038,44.3819 7.7683,34.8819 27.5,35C 21.0637,27.6432 17.8971,19.1432 18,9.5C 21.3333,6.83333 24.6667,6.83333 28,9.5C 29.8797,16.263 33.0464,22.263 37.5,27.5C 39.4586,26.2519 40.9586,24.5852 42,22.5C 44.1394,16.8878 46.8061,11.5545 50,6.5C 57.4484,0.449207 65.2817,-0.0507926 73.5,5C 78.6278,12.3754 78.7945,19.8754 74,27.5C 68.6944,31.5707 62.861,34.7374 56.5,37C 54.4148,38.0414 52.7481,39.5414 51.5,41.5C 56.737,45.9536 62.737,49.1203 69.5,51C 73.6563,59.5221 70.9896,62.8554 61.5,61C 55.03,58.5998 49.03,55.4331 43.5,51.5 Z"/></g>
<g><path style="opacity:1" fill="#97cbfc" d="M 58.5,3.5 C 73.271,3.71899 78.1043,10.719 73,24.5C 67.5325,29.1527 61.3658,32.6527 54.5,35C 52.04,36.4578 49.8734,38.2911 48,40.5C 44.8333,37.3333 41.6667,34.1667 38.5,31C 44.0686,24.7027 48.2352,17.536 51,9.5C 53.1141,6.87922 55.6141,4.87922 58.5,3.5 Z"/></g>
<g><path style="opacity:1" fill="#f4f9fe" d="M 59.5,7.5 C 64.797,8.03248 64.797,8.86581 59.5,10C 56.817,11.8449 55.1503,14.3449 54.5,17.5C 53.3861,16.277 53.2195,14.9437 54,13.5C 55.3597,10.9774 57.193,8.97739 59.5,7.5 Z"/></g>
<g><path style="opacity:1" fill="#d9ecfb" d="M 44.5,49.5 C 43.5637,48.0256 42.2303,47.0256 40.5,46.5C 30.6022,37.216 23.6022,26.0493 19.5,13C 20.2084,10.2765 21.8751,9.27653 24.5,10C 32.6667,31.5 47.5,46.3333 69,54.5C 69.6586,57.3534 68.492,59.0201 65.5,59.5C 58.0838,56.9578 51.0838,53.6245 44.5,49.5 Z"/></g>
<g><path style="opacity:1" fill="#d6eafa" d="M 25.5,41.5 C 13.018,41.1476 7.18464,47.1476 8,59.5C 12.8559,71.5006 21.0225,74.3339 32.5,68C 35.9028,63.7953 37.7362,58.962 38,53.5C 39.0113,52.6634 40.1779,52.33 41.5,52.5C 41.3724,68.4623 33.3724,75.9623 17.5,75C 11.3432,72.6756 7.00982,68.5089 4.5,62.5C 3.41131,58.9221 3.24465,55.2554 4,51.5C 8.09273,41.3698 15.5927,36.7031 26.5,37.5C 26.5674,38.9587 26.2341,40.2921 25.5,41.5 Z"/></g>
<g><path style="opacity:1" fill="#b1d8fb" d="M 39.5,47.5 C 40.2891,47.7828 40.9558,48.2828 41.5,49C 38.4937,51.5154 35.1604,52.8488 31.5,53C 27.9713,50.6692 25.9713,47.5025 25.5,43.5C 26.9319,41.6729 28.5986,40.0063 30.5,38.5C 33.1877,41.8544 36.1877,44.8544 39.5,47.5 Z"/></g>
<g><path style="opacity:0.863" fill="#4e8dca" d="M 25.5,41.5 C 25.5,42.1667 25.5,42.8333 25.5,43.5C 25.9713,47.5025 27.9713,50.6692 31.5,53C 35.1604,52.8488 38.4937,51.5154 41.5,49C 40.9558,48.2828 40.2891,47.7828 39.5,47.5C 39.5,46.8333 39.8333,46.5 40.5,46.5C 42.2303,47.0256 43.5637,48.0256 44.5,49.5C 43.6618,49.8417 43.3284,50.5084 43.5,51.5C 44.201,70.9643 34.8677,79.4643 15.5,77C 8.92139,74.5894 4.58805,70.0894 2.5,63.5C 2.84171,62.6618 3.50838,62.3284 4.5,62.5C 7.00982,68.5089 11.3432,72.6756 17.5,75C 33.3724,75.9623 41.3724,68.4623 41.5,52.5C 40.1779,52.33 39.0113,52.6634 38,53.5C 37.7362,58.962 35.9028,63.7953 32.5,68C 21.0225,74.3339 12.8559,71.5006 8,59.5C 7.18464,47.1476 13.018,41.1476 25.5,41.5 Z M 17.5,44.5 C 19.5,44.5 21.5,44.5 23.5,44.5C 23.4961,49.0289 25.4961,52.5289 29.5,55C 31.1341,55.4935 32.8008,55.6602 34.5,55.5C 33.6356,65.9496 27.969,70.1163 17.5,68C 10.9298,64.3449 8.76315,58.8449 11,51.5C 12.6941,48.6424 14.8607,46.309 17.5,44.5 Z"/></g>
</svg>
