<?xml version="1.0" encoding="UTF-8"?>
<!DOCTYPE svg PUBLIC "-//W3C//DTD SVG 1.1//EN" "http://www.w3.org/Graphics/SVG/1.1/DTD/svg11.dtd">
<svg xmlns="http://www.w3.org/2000/svg" version="1.1" width="80px" height="80px" style="shape-rendering:geometricPrecision; text-rendering:geometricPrecision; image-rendering:optimizeQuality; fill-rule:evenodd; clip-rule:evenodd" xmlns:xlink="http://www.w3.org/1999/xlink">
<g><path style="opacity:0.865" fill="#4b8ac8" d="M 18.5,1.5 C 29.8179,0.989989 32.4846,5.48999 26.5,15C 15.1055,15.8027 12.4388,11.3027 18.5,1.5 Z"/></g>
<g><path style="opacity:0.865" fill="#4b8ac8" d="M 54.5,1.5 C 65.8179,0.989989 68.4846,5.48999 62.5,15C 51.1055,15.8027 48.4388,11.3027 54.5,1.5 Z"/></g>
<g><path style="opacity:1" fill="#d7eafb" d="M 20.5,3.5 C 25.6646,3.16192 27.8313,5.49525 27,10.5C 24,14.5 21,14.5 18,10.5C 17.162,7.51926 17.9953,5.18593 20.5,3.5 Z"/></g>
<g><path style="opacity:1" fill="#d7eafb" d="M 56.5,3.5 C 61.6646,3.16192 63.8313,5.49525 63,10.5C 60,14.5 57,14.5 54,10.5C 53.162,7.51926 53.9953,5.18593 56.5,3.5 Z"/></g>
<g><path style="opacity:0.946" fill="#4a8ac8" d="M 48.5,39.5 C 47.8333,39.5 47.1667,39.5 46.5,39.5C 47.7347,36.6987 49.2347,34.0321 51,31.5C 51.3333,45.8333 51.6667,60.1667 52,74.5C 53,75.8333 54,75.8333 55,74.5C 55.4997,66.8406 55.6664,59.1739 55.5,51.5C 57.5,51.5 59.5,51.5 61.5,51.5C 61.3336,59.1739 61.5003,66.8406 62,74.5C 63,75.8333 64,75.8333 65,74.5C 65.1681,65.8142 65.6681,57.1475 66.5,48.5C 67.4776,48.0233 68.3109,47.3567 69,46.5C 69.6667,39.5 69.6667,32.5 69,25.5C 64.5901,19.1561 59.0901,17.9894 52.5,22C 48.3635,28.4443 44.3635,34.9443 40.5,41.5C 39.8333,41.1667 39.1667,40.8333 38.5,40.5C 38.6107,39.8826 38.944,39.3826 39.5,39C 35.8751,33.5846 32.3751,28.0846 29,22.5C 25.5866,19.986 21.7532,18.986 17.5,19.5C 16.5,19.5 15.5,19.5 14.5,19.5C 18.9524,17.0286 23.6191,16.8619 28.5,19C 32.867,24.2343 36.867,29.7343 40.5,35.5C 44.133,29.7343 48.133,24.2343 52.5,19C 60.3465,15.6172 66.5131,17.4505 71,24.5C 71.6667,33.8333 71.6667,43.1667 71,52.5C 69.9887,53.3366 68.8221,53.67 67.5,53.5C 67.6664,61.1739 67.4997,68.8406 67,76.5C 64.6667,77.8333 62.3333,77.8333 60,76.5C 59,45.8333 58,45.8333 57,76.5C 54.9361,77.5914 52.7695,77.7581 50.5,77C 49.8423,64.402 49.1756,51.902 48.5,39.5 Z"/></g>
<g><path style="opacity:1" fill="#96cafc" d="M 17.5,19.5 C 21.7532,18.986 25.5866,19.986 29,22.5C 32.3751,28.0846 35.8751,33.5846 39.5,39C 38.944,39.3826 38.6107,39.8826 38.5,40.5C 37.7784,40.9175 37.2784,41.5842 37,42.5C 34.417,39.0026 32.0836,35.3359 30,31.5C 29.8246,46.0746 29.3246,60.5746 28.5,75C 27.5509,75.6172 26.7175,75.4506 26,74.5C 25.5003,66.8406 25.3336,59.1739 25.5,51.5C 23.5,51.5 21.5,51.5 19.5,51.5C 19.6664,59.1739 19.4997,66.8406 19,74.5C 18.2825,75.4506 17.4491,75.6172 16.5,75C 15.8462,66.2256 15.1795,57.3923 14.5,48.5C 13.5224,48.0233 12.6891,47.3567 12,46.5C 11.3333,39.8333 11.3333,33.1667 12,26.5C 12.9668,23.3794 14.8001,21.046 17.5,19.5 Z"/></g>
<g><path style="opacity:1" fill="#b4dafd" d="M 46.5,39.5 C 45.2421,42.3638 43.2421,43.0304 40.5,41.5C 44.3635,34.9443 48.3635,28.4443 52.5,22C 59.0901,17.9894 64.5901,19.1561 69,25.5C 69.6667,32.5 69.6667,39.5 69,46.5C 68.3109,47.3567 67.4776,48.0233 66.5,48.5C 65.6681,57.1475 65.1681,65.8142 65,74.5C 64,75.8333 63,75.8333 62,74.5C 61.5003,66.8406 61.3336,59.1739 61.5,51.5C 59.5,51.5 57.5,51.5 55.5,51.5C 55.6664,59.1739 55.4997,66.8406 55,74.5C 54,75.8333 53,75.8333 52,74.5C 51.6667,60.1667 51.3333,45.8333 51,31.5C 49.2347,34.0321 47.7347,36.6987 46.5,39.5 Z"/></g>
<g><path style="opacity:0.962" fill="#4a8ac8" d="M 14.5,19.5 C 15.5,19.5 16.5,19.5 17.5,19.5C 14.8001,21.046 12.9668,23.3794 12,26.5C 11.3333,33.1667 11.3333,39.8333 12,46.5C 12.6891,47.3567 13.5224,48.0233 14.5,48.5C 15.1795,57.3923 15.8462,66.2256 16.5,75C 17.4491,75.6172 18.2825,75.4506 19,74.5C 19.4997,66.8406 19.6664,59.1739 19.5,51.5C 21.5,51.5 23.5,51.5 25.5,51.5C 25.3336,59.1739 25.5003,66.8406 26,74.5C 26.7175,75.4506 27.5509,75.6172 28.5,75C 29.3246,60.5746 29.8246,46.0746 30,31.5C 32.0836,35.3359 34.417,39.0026 37,42.5C 37.2784,41.5842 37.7784,40.9175 38.5,40.5C 39.1667,40.8333 39.8333,41.1667 40.5,41.5C 43.2421,43.0304 45.2421,42.3638 46.5,39.5C 47.1667,39.5 47.8333,39.5 48.5,39.5C 43.2049,52.8145 37.7049,52.8145 32,39.5C 31.8231,52.0755 31.3231,64.5755 30.5,77C 28.2305,77.7581 26.0639,77.5914 24,76.5C 23,45.8333 22,45.8333 21,76.5C 18.6667,77.8333 16.3333,77.8333 14,76.5C 13.5003,68.8406 13.3336,61.1739 13.5,53.5C 12.1779,53.67 11.0113,53.3366 10,52.5C 9.33333,43.1667 9.33333,33.8333 10,24.5C 10.9959,22.3395 12.4959,20.6728 14.5,19.5 Z"/></g>
<g><path style="opacity:1" fill="#d0e5f8" d="M 38.5,43.5 C 43.8333,44.5 43.8333,45.5 38.5,46.5C 38.5,45.5 38.5,44.5 38.5,43.5 Z"/></g>
</svg>
