<?xml version="1.0" encoding="UTF-8"?>
<!DOCTYPE svg PUBLIC "-//W3C//DTD SVG 1.1//EN" "http://www.w3.org/Graphics/SVG/1.1/DTD/svg11.dtd">
<svg xmlns="http://www.w3.org/2000/svg" version="1.1" width="80px" height="80px" style="shape-rendering:geometricPrecision; text-rendering:geometricPrecision; image-rendering:optimizeQuality; fill-rule:evenodd; clip-rule:evenodd" xmlns:xlink="http://www.w3.org/1999/xlink">
<g><path style="opacity:0.88" fill="#4c8bc8" d="M 23.5,9.5 C 23.278,12.5042 22.278,15.1708 20.5,17.5C 19.2905,17.9321 18.2905,18.5987 17.5,19.5C 6.63214,19.7803 3.13214,14.7803 7,4.5C 12,0.5 17,0.5 22,4.5C 23.0086,6.02494 23.5086,7.69161 23.5,9.5 Z"/></g>
<g><path style="opacity:1" fill="#daecfc" d="M 11.5,3.5 C 18.6545,3.15268 21.8212,6.48601 21,13.5C 16.6667,18.8333 12.3333,18.8333 8,13.5C 7.33333,11.5 7.33333,9.5 8,7.5C 9.37561,6.29493 10.5423,4.9616 11.5,3.5 Z"/></g>
<g><path style="opacity:0.954" fill="#4788c7" d="M 79.5,9.5 C 79.5,12.1667 79.5,14.8333 79.5,17.5C 77.5186,30.4581 76.8519,43.7914 77.5,57.5C 70.8002,57.17 64.1335,57.5033 57.5,58.5C 59.5872,61.6728 61.4205,65.0061 63,68.5C 64.0113,69.3366 65.1779,69.67 66.5,69.5C 66.5,71.5 66.5,73.5 66.5,75.5C 64.5,75.5 62.5,75.5 60.5,75.5C 60.6621,73.4727 60.4955,71.4727 60,69.5C 57.746,65.9934 55.746,62.3267 54,58.5C 52.6439,57.6198 51.1439,57.2865 49.5,57.5C 49.5,60.1667 49.5,62.8333 49.5,65.5C 48.1667,65.5 46.8333,65.5 45.5,65.5C 45.5,62.8333 45.5,60.1667 45.5,57.5C 43.8561,57.2865 42.3561,57.6198 41,58.5C 39.254,62.3267 37.254,65.9934 35,69.5C 34.5045,71.4727 34.3379,73.4727 34.5,75.5C 32.5,75.5 30.5,75.5 28.5,75.5C 28.5,73.5 28.5,71.5 28.5,69.5C 29.8221,69.67 30.9887,69.3366 32,68.5C 33.5795,65.0061 35.4128,61.6728 37.5,58.5C 32.8804,57.5067 28.2137,57.1734 23.5,57.5C 40.4678,55.514 57.8011,54.8473 75.5,55.5C 75.5,42.8333 75.5,30.1667 75.5,17.5C 58.1667,17.5 40.8333,17.5 23.5,17.5C 41.1356,15.5134 59.1356,14.8467 77.5,15.5C 77.5,14.1667 77.5,12.8333 77.5,11.5C 59.8011,12.1527 42.4678,11.486 25.5,9.5C 32.9791,10.0184 40.3125,9.35176 47.5,7.5C 58.0397,9.40245 68.7063,10.0691 79.5,9.5 Z"/></g>
<g><path style="opacity:1" fill="#b5dbfd" d="M 23.5,9.5 C 24.1667,9.5 24.8333,9.5 25.5,9.5C 42.4678,11.486 59.8011,12.1527 77.5,11.5C 77.5,12.8333 77.5,14.1667 77.5,15.5C 59.1356,14.8467 41.1356,15.5134 23.5,17.5C 22.5,17.5 21.5,17.5 20.5,17.5C 22.278,15.1708 23.278,12.5042 23.5,9.5 Z"/></g>
<g><path style="opacity:1" fill="#deeffd" d="M 20.5,17.5 C 21.5,17.5 22.5,17.5 23.5,17.5C 40.8333,17.5 58.1667,17.5 75.5,17.5C 75.5,30.1667 75.5,42.8333 75.5,55.5C 57.8011,54.8473 40.4678,55.514 23.5,57.5C 22.8333,57.5 22.1667,57.5 21.5,57.5C 21.8357,48.139 22.5024,38.8057 23.5,29.5C 30.8409,29.6663 38.1742,29.4997 45.5,29C 48.1667,26.6667 48.1667,24.3333 45.5,22C 36.1726,21.5002 26.8393,21.3335 17.5,21.5C 17.5,20.8333 17.5,20.1667 17.5,19.5C 18.2905,18.5987 19.2905,17.9321 20.5,17.5 Z"/></g>
<g><path style="opacity:0.939" fill="#4a8ac8" d="M 17.5,21.5 C 26.8393,21.3335 36.1726,21.5002 45.5,22C 48.1667,24.3333 48.1667,26.6667 45.5,29C 38.1742,29.4997 30.8409,29.6663 23.5,29.5C 22.5024,38.8057 21.8357,48.139 21.5,57.5C 20.9457,64.1531 20.6123,70.8198 20.5,77.5C 16.1667,77.5 11.8333,77.5 7.5,77.5C 7.66632,70.1591 7.49966,62.8258 7,55.5C 5.33333,53.8333 3.66667,52.1667 2,50.5C 1.33333,43.1667 1.33333,35.8333 2,28.5C 5.31869,22.2598 10.4854,19.9265 17.5,21.5 Z"/></g>
<g><path style="opacity:1" fill="#96cbfc" d="M 9.5,23.5 C 21.1714,23.3335 32.8381,23.5001 44.5,24C 45.8333,25 45.8333,26 44.5,27C 36.8406,27.4997 29.1739,27.6664 21.5,27.5C 20.2768,43.5115 18.9435,59.5115 17.5,75.5C 14.8333,75.5 12.1667,75.5 9.5,75.5C 9.66629,68.4921 9.49962,61.4921 9,54.5C 4.05034,50.9604 2.21701,46.1271 3.5,40C 2.11148,33.0881 4.11148,27.5881 9.5,23.5 Z"/></g>
</svg>
