<svg xmlns="http://www.w3.org/2000/svg" shape-rendering="geometricPrecision" text-rendering="geometricPrecision" image-rendering="optimizeQuality" fill-rule="evenodd" clip-rule="evenodd" viewBox="0 0 419 511.67"><path d="M93 39.4h46.13C141.83 17.18 159.77 0 181.52 0c21.62 0 39.45 16.95 42.34 38.94l46.76.46c2.61 0 4.7 2.09 4.7 4.71v51.84c0 2.6-2.09 4.7-4.7 4.7H93.05c-2.55 0-4.71-2.1-4.71-4.7V44.11C88.3 41.49 90.4 39.4 93 39.4zm221.98 264.22c57.47 0 104.02 46.59 104.02 104.03 0 57.47-46.58 104.02-104.02 104.02-57.47 0-104.03-46.58-104.03-104.02 0-57.47 46.59-104.03 104.03-104.03zm24.17 78.99-2.2-1.8c-3.5-2.77-7.15-5.18-10.1-6.64-9.23-4.57-19.49-4.96-28.55-1.89a37.171 37.171 0 0 0-21.47 18.77c-4.58 9.25-4.97 19.49-1.91 28.55a37.29 37.29 0 0 0 18.79 21.5 37.274 37.274 0 0 0 26.95 2.41c8.73-2.53 16.54-8.24 21.52-16.44 2.41-3.98 7.6-5.25 11.58-2.85 3.98 2.4 5.25 7.6 2.84 11.58-7.25 11.96-18.58 20.23-31.24 23.91-12.55 3.63-26.49 2.78-39.11-3.48-13.42-6.65-22.9-18.12-27.34-31.28-4.44-13.13-3.86-27.96 2.78-41.36 6.63-13.42 18.11-22.89 31.26-27.33 13.12-4.43 27.98-3.85 41.37 2.77 3.94 1.94 8.65 5.05 13.09 8.55l1.78 1.45-.38-6.74c-.26-4.65 3.31-8.65 7.97-8.9 4.65-.25 8.64 3.32 8.89 7.96l1.53 27.51c.36 4.65-3.12 8.74-7.77 9.09l-28.63 2.3c-4.65.35-8.74-3.12-9.09-7.77-.36-4.66 3.11-8.74 7.77-9.1l9.67-.77zM41.73 59.27h23.93v24.38H41.73c-4.54 0-8.7 1.76-11.79 4.61l-.46.49c-3.14 3.13-5.1 7.48-5.1 12.24v315.53c0 4.75 1.96 9.1 5.1 12.24 3.13 3.15 7.48 5.11 12.25 5.11h142.62c1.68 8.44 4.17 16.6 7.36 24.38H41.73c-11.41 0-21.85-4.71-29.42-12.27C4.72 438.44 0 427.99 0 416.52V100.99c0-11.48 4.7-21.92 12.25-29.47l.8-.72c7.49-7.13 17.61-11.53 28.68-11.53zm297.55 217.37V100.99c0-4.74-1.97-9.09-5.12-12.24-3.11-3.15-7.47-5.1-12.24-5.1h-23.91V59.27h23.91c11.45 0 21.86 4.72 29.42 12.26 7.61 7.56 12.32 18.02 12.32 29.46V283.6c-7.8-3.06-15.95-5.41-24.38-6.96zm-206.75-8.07c-7.13 0-12.92-5.79-12.92-12.92 0-7.14 5.79-12.93 12.92-12.93h142.82c7.14 0 12.93 5.79 12.93 12.93 0 7.13-5.79 12.92-12.93 12.92H132.53zM89.5 241.22c7.98 0 14.44 6.45 14.44 14.43 0 7.98-6.46 14.44-14.44 14.44-7.98 0-14.44-6.46-14.44-14.44 0-7.98 6.46-14.43 14.44-14.43zm0 78.62c7.98 0 14.44 6.46 14.44 14.44 0 7.97-6.46 14.43-14.44 14.43-7.98 0-14.44-6.46-14.44-14.43 0-7.98 6.46-14.44 14.44-14.44zm43.04 27.35c-7.13 0-12.93-5.79-12.93-12.92s5.8-12.93 12.93-12.93h80.96a133.608 133.608 0 0 0-17.26 25.85h-63.7zM89.5 162.6c7.98 0 14.44 6.46 14.44 14.44 0 7.98-6.46 14.44-14.44 14.44-7.98 0-14.44-6.46-14.44-14.44 0-7.98 6.46-14.44 14.44-14.44zm43.03 27.37c-7.13 0-12.92-5.8-12.92-12.93s5.79-12.93 12.92-12.93h142.82c7.14 0 12.93 5.8 12.93 12.93s-5.79 12.93-12.93 12.93H132.53zm48.5-169.82c12.3 0 22.26 9.98 22.26 22.27 0 12.3-9.96 22.26-22.26 22.26-12.29 0-22.26-9.96-22.26-22.26 0-12.29 9.97-22.27 22.26-22.27z"/></svg>