<svg viewBox="0 0 512 512" xmlns="http://www.w3.org/2000/svg"><path d="M459.44 23.47H52.56a29.15 29.15 0 0 0-29.07 29.07v406.88a29.15 29.15 0 0 0 29.07 29.07h218.82V308.67h-60.66v-70.42h60.66V186c0-41.17 9.51-64.72 30.06-79.9 17.61-13 40.56-13.83 54.57-13.4 15 .46 60.13 3 60.13 3v63.77l-41.85-.4s-17.46-.61-24 9.34c-5.58 8.54-5.69 23.16-5.69 23.16v46.31h68.65l-7.72 70.82h-61.3v179.79h115.21a29.15 29.15 0 0 0 29.07-29.07V52.54a29.15 29.15 0 0 0-29.07-29.07Z" fill="#5077ab" class="fill-3b579d"></path></svg>