<svg viewBox="0 0 512 512" xml:space="preserve" xmlns="http://www.w3.org/2000/svg" fill-rule="evenodd" clip-rule="evenodd" stroke-linejoin="round" stroke-miterlimit="2"><path d="M116.225-.001c-11.264.512-26.112 1.536-32.768 3.072-10.24 2.048-19.968 5.12-27.648 9.216-9.728 4.608-17.92 10.752-25.088 17.92-7.68 7.68-13.824 15.872-18.432 25.6-4.096 7.68-7.168 17.408-9.216 27.648-1.536 6.656-2.56 21.504-2.56 32.768-.512 4.608-.512 10.752-.512 13.824v265.729c.512 11.264 1.536 26.112 3.072 32.768 2.048 10.24 5.12 19.968 9.216 27.648 4.608 9.728 10.752 17.92 17.92 25.088 7.68 7.68 15.872 13.824 25.6 18.432 7.68 4.096 17.408 7.168 27.648 9.216 6.656 1.536 21.504 2.56 32.768 2.56 4.608.512 10.752.512 13.824.512h265.728c11.264-.512 26.112-1.536 32.768-3.072 10.24-2.048 19.968-5.12 27.648-9.216 9.728-4.608 17.92-10.752 25.088-17.92 7.68-7.68 13.824-15.872 18.432-25.6 4.096-7.68 7.168-17.408 9.216-27.648 1.536-6.656 2.56-21.504 2.56-32.768.512-4.608.512-10.752.512-13.824V116.223c-.512-11.264-1.536-26.112-3.072-32.768-2.048-10.24-5.12-19.968-9.216-27.648-4.608-9.728-10.752-17.92-17.92-25.088-7.68-7.68-15.872-13.824-25.6-18.432-7.68-4.096-17.408-7.168-27.648-9.216-6.656-1.536-21.504-2.56-32.768-2.56-4.608-.512-10.752-.512-13.824-.512H116.225Z" fill="url(#a)" fill-rule="nonzero" class="fillurl(-a)"></path><path d="M344.754 289.698c-4.56-2.282-26.98-13.311-31.161-14.832-4.18-1.521-7.219-2.282-10.259 2.282-3.041 4.564-11.78 14.832-14.44 17.875-2.66 3.042-5.32 3.423-9.88 1.14-4.561-2.281-19.254-7.095-36.672-22.627-13.556-12.087-22.709-27.017-25.369-31.581s-.283-7.031 2-9.304c2.051-2.041 4.56-5.324 6.84-7.986 2.28-2.662 3.04-4.564 4.56-7.606 1.52-3.042.76-5.705-.38-7.987-1.14-2.282-10.26-24.72-14.06-33.848-3.701-8.889-7.461-7.686-10.26-7.826-2.657-.132-5.7-.16-8.74-.16-3.041 0-7.98 1.141-12.161 5.704-4.18 4.564-15.96 15.594-15.96 38.032 0 22.438 16.34 44.116 18.62 47.159 2.281 3.043 32.157 49.089 77.902 68.836 10.88 4.697 19.374 7.501 25.997 9.603 10.924 3.469 20.866 2.98 28.723 1.806 8.761-1.309 26.98-11.029 30.781-21.677 3.799-10.649 3.799-19.777 2.659-21.678-1.139-1.902-4.179-3.043-8.74-5.325m-83.207 113.573h-.061c-27.22-.011-53.917-7.32-77.207-21.137l-5.539-3.287-57.413 15.056 15.325-55.959-3.608-5.736c-15.184-24.145-23.203-52.051-23.192-80.704.033-83.611 68.083-151.635 151.756-151.635 40.517.016 78.603 15.811 107.243 44.474 28.64 28.663 44.404 66.764 44.389 107.283-.035 83.617-68.083 151.645-151.693 151.645m129.102-280.709c-34.457-34.486-80.281-53.487-129.103-53.507-100.595 0-182.468 81.841-182.508 182.437-.013 32.156 8.39 63.546 24.361 91.212l-25.892 94.545 96.75-25.37c26.657 14.535 56.67 22.194 87.216 22.207h.075c100.586 0 182.465-81.852 182.506-182.448.019-48.751-18.946-94.59-53.405-129.076" fill="#ffffff" class="fill-ffffff"></path><defs><linearGradient gradientTransform="matrix(0 -512 -512 0 256.001 512)" gradientUnits="userSpaceOnUse" id="a" x1="0" x2="1" y1="0" y2="0"><stop offset="0" stop-color="#5077ab" stop-opacity="1" class="stop-color-25cf43"></stop><stop offset="1" stop-color="#5077ab" stop-opacity="1" class="stop-color-61fd7d"></stop></linearGradient></defs></svg>