<svg xmlns="http://www.w3.org/2000/svg" xmlns:xlink="http://www.w3.org/1999/xlink" zoomAndPan="magnify" preserveAspectRatio="xMidYMid meet" version="1.0" viewBox="177.65 114.17 177.15 125.12"><path fill="#cdb4db" d="M 274.378906 234.90625 C 266.199219 234.839844 257.203125 234.003906 248.832031 234.3125 C 239.945312 234.660156 231.445312 237.621094 222.714844 239.011719 C 207.328125 241.144531 193.265625 230.882812 185.050781 218.679688 C 179.007812 210.035156 176.761719 199.234375 177.960938 188.785156 C 178.183594 185.289062 179.621094 182.21875 180.917969 179.101562 C 182.652344 174.9375 184.582031 170.84375 187.398438 167.265625 C 196.65625 156.042969 209.742188 148.996094 220.789062 139.753906 C 221.871094 138.902344 222.621094 137.785156 223.253906 136.570312 C 226.699219 129.472656 230.273438 121.742188 237.84375 118.242188 C 250.167969 111.398438 266.332031 113.371094 276.863281 122.757812 C 279.492188 125.148438 281.683594 127.949219 284.34375 130.289062 C 292.023438 137.40625 299.609375 146.070312 310.285156 148.332031 C 321.589844 149.304688 327.464844 140.910156 339.578125 144.726562 C 351.300781 147.8125 355.269531 161.441406 354.753906 172.308594 C 353.882812 182.148438 349.929688 191.511719 344.644531 199.769531 C 327.488281 224.363281 304.210938 235.449219 274.378906 234.90625 Z M 274.378906 234.90625 " fill-opacity="1" fill-rule="nonzero"/></svg>