<svg xmlns="http://www.w3.org/2000/svg" xmlns:xlink="http://www.w3.org/1999/xlink" width="500" zoomAndPan="magnify" viewBox="0 0 375 374.999991" height="500" preserveAspectRatio="xMidYMid meet" version="1.0"><defs><g/><clipPath id="2d2e5974ba"><path d="M 46.445312 18 L 374.945312 18 L 374.945312 350.660156 L 46.445312 350.660156 Z M 46.445312 18 " clip-rule="nonzero"/></clipPath><clipPath id="2057c2e5b5"><path d="M 94.777344 274.140625 C 91.09375 272.464844 89.96875 267.121094 86.570312 263.074219 C 85.828125 261.636719 87.335938 263.53125 89.273438 266.261719 C 91.140625 268.992188 93.867188 272.25 94.777344 274.140625 Z M 77.742188 275.101562 L 76.328125 276.128906 C 78.027344 278.789062 80.015625 281.089844 81.089844 280.464844 C 80.015625 279.074219 79.152344 278.453125 78.269531 277.855469 C 78.769531 277.304688 79.105469 276.753906 77.742188 275.101562 Z M 163.921875 316.972656 C 167.054688 318.050781 170.023438 318.914062 171.984375 318.792969 C 160.355469 315.917969 146.957031 309.425781 137.769531 305.28125 C 140.546875 306.816406 143.296875 308.394531 146.144531 309.808594 L 154.878906 313.617188 C 157.484375 314.625 160.789062 315.917969 163.921875 316.972656 Z M 330.707031 289.496094 C 328.53125 292.464844 326.089844 294.957031 323.867188 297.449219 C 321.59375 299.890625 319.4375 302.3125 317.238281 304.445312 C 312.714844 308.613281 308.648438 312.636719 304.558594 316.132812 C 304.460938 316.207031 304.367188 316.300781 304.269531 316.375 C 302.238281 317.140625 300.296875 317.546875 298.503906 317.449219 C 295.632812 319.75 292.640625 321.523438 289.84375 323.34375 C 286.996094 325.117188 284.316406 326.890625 281.636719 328.398438 C 281.566406 328.445312 281.492188 328.46875 281.445312 328.492188 C 281.15625 328.46875 280.894531 328.421875 280.558594 328.445312 C 280.511719 328.636719 280.464844 328.851562 280.417969 329.042969 C 275.441406 331.679688 270.847656 334.242188 266.371094 336.398438 C 261.492188 338.652344 256.945312 341.09375 252.421875 343.34375 C 247.878906 345.527344 243.449219 347.945312 238.929688 350.652344 C 243.546875 348.949219 248.976562 346.960938 254.839844 344.832031 C 260.511719 342.339844 266.683594 340.039062 272.664062 337.261719 C 274.386719 336.421875 276.132812 335.632812 277.878906 334.816406 C 277.878906 334.84375 277.855469 334.84375 277.855469 334.867188 C 279.507812 334.363281 280.488281 333.835938 281.300781 333.261719 C 284.316406 331.871094 287.28125 330.480469 290.105469 328.996094 C 287.308594 331.535156 284.53125 334.171875 281.78125 336.996094 C 285.800781 334.171875 290.535156 330.839844 295.632812 327.25 C 296.542969 326.503906 297.5 325.785156 298.457031 325.042969 C 298.457031 325.042969 298.480469 325.042969 298.480469 325.042969 C 301.113281 323.800781 303.601562 322.53125 306.015625 321.523438 C 306.496094 318.746094 302.476562 323.390625 301.828125 322.457031 C 303.601562 321.117188 305.371094 319.773438 307.117188 318.359375 C 310.707031 315.726562 314.152344 313.164062 317.238281 310.410156 C 319.582031 308.421875 321.832031 306.457031 323.960938 304.515625 C 324.605469 303.894531 325.207031 303.246094 325.804688 302.597656 C 328.101562 300.585938 330.398438 298.648438 332.621094 296.851562 C 334.847656 294.957031 336.929688 293.089844 339.011719 291.484375 C 338.746094 288.5625 335.828125 294.695312 335.109375 293.375 C 339.417969 287.914062 343.628906 283.003906 347 277.855469 C 348.75 275.339844 350.421875 272.847656 351.976562 270.40625 C 353.460938 267.914062 354.730469 265.351562 355.949219 262.859375 C 351.429688 268.558594 347.21875 274.597656 343.222656 279.769531 C 339.152344 284.898438 334.847656 288.65625 330.707031 289.496094 Z M 368.34375 206.136719 C 367.671875 209.296875 367.074219 212.242188 366.476562 215.046875 C 365.949219 217.871094 365.449219 220.53125 364.96875 223.117188 C 364.394531 225.683594 363.871094 228.222656 363.4375 230.761719 C 364.253906 228.003906 365.113281 225.035156 366.023438 222.015625 C 366.742188 218.949219 367.457031 215.789062 368.175781 212.722656 C 369.683594 206.566406 370.113281 200.507812 369.945312 195.835938 C 369.371094 199.546875 368.847656 202.949219 368.34375 206.136719 Z M 153.800781 336.996094 C 156.984375 338.003906 160.714844 339.632812 164.449219 340.972656 C 168.179688 342.292969 171.984375 342.988281 174.976562 342.84375 C 171.53125 341.910156 167.199219 340.757812 163.371094 339.273438 C 159.496094 337.859375 155.980469 336.78125 153.800781 336.996094 Z M 369.683594 141.746094 C 370.664062 144.859375 371.644531 147.902344 372.578125 150.824219 C 371.765625 147.277344 370.902344 143.757812 369.96875 140.308594 C 368.847656 136.90625 367.671875 133.578125 366.453125 130.367188 C 365.832031 128.761719 365.210938 127.207031 364.585938 125.648438 C 363.917969 124.140625 363.152344 122.679688 362.410156 121.265625 C 360.925781 118.4375 359.394531 115.777344 357.863281 113.359375 C 360.902344 119.636719 363.964844 125.9375 366.191406 132.355469 C 367.363281 135.542969 368.65625 138.65625 369.683594 141.746094 Z M 350.734375 101.71875 C 352.242188 104.210938 353.675781 106.292969 355.089844 107.5625 C 352.144531 102.699219 349.179688 96.757812 345.878906 93.695312 C 346.738281 95.058594 347.625 96.425781 348.460938 97.765625 C 349.25 99.132812 350.015625 100.472656 350.734375 101.71875 Z M 158.058594 275.339844 C 157.152344 274.597656 155.523438 273.496094 153.585938 272.320312 C 151.625 271.148438 149.542969 269.589844 147.292969 268.390625 C 146.671875 268.726562 145.644531 268.96875 146.957031 268.871094 C 149.183594 269.78125 151.195312 272.175781 151.960938 272.917969 C 150.1875 271.601562 148.324219 270.019531 147.722656 271.554688 C 148.25 271.578125 148.707031 271.746094 149.160156 271.960938 C 149.015625 272.035156 148.898438 272.082031 148.753906 272.226562 C 148.65625 272.726562 149.828125 273.878906 151.21875 274.742188 C 152.628906 275.53125 154.183594 276.105469 154.566406 275.792969 C 153.96875 275.554688 153.394531 275.027344 152.820312 274.429688 C 153.25 274.597656 153.65625 274.574219 154.039062 274.214844 C 153.539062 274.046875 152.941406 273.636719 152.34375 273.207031 C 158.921875 276.894531 159.878906 276.824219 158.058594 275.339844 Z M 160.835938 291.316406 C 163.492188 292.515625 166.386719 294.957031 168.203125 293.066406 C 165.140625 291.964844 162.628906 290.933594 160.835938 291.316406 Z M 48.027344 204.792969 C 48.503906 206.496094 49.007812 208.097656 49.460938 209.464844 C 48.960938 207.738281 48.550781 205.945312 48.359375 204.148438 C 48.21875 202.351562 48.167969 200.554688 48.121094 198.878906 C 48.027344 195.5 47.953125 192.554688 47.1875 190.613281 C 46.496094 192.625 46.589844 195.976562 47.070312 199.523438 C 47.308594 201.273438 47.644531 203.070312 48.027344 204.792969 Z M 146.71875 301.210938 C 146.359375 301.425781 148.371094 303.007812 154.066406 304.324219 C 151.933594 303.078125 150.164062 302.3125 148.898438 301.808594 C 147.675781 301.28125 146.886719 301.089844 146.71875 301.210938 Z M 111.546875 275.410156 C 114.609375 277.542969 117.9375 280.609375 120.734375 280.96875 C 118.75 279.363281 116.359375 276.777344 114.636719 274.933594 C 112.886719 273.085938 111.765625 271.960938 112.53125 273.0625 C 115.59375 275.960938 111.789062 273.472656 111.546875 275.410156 Z M 138.152344 296.082031 C 135.738281 292.660156 131 292.105469 126.859375 288.347656 C 127.078125 292.011719 136.40625 294.167969 138.152344 296.082031 Z M 72.261719 105.121094 C 71.976562 104.304688 72.09375 102.699219 72.957031 102.890625 C 74.464844 100.6875 78.578125 93.476562 79.726562 92.472656 C 81.402344 89.835938 83.054688 87.25 84.726562 84.757812 C 87.957031 80.304688 90.804688 75.703125 93.652344 71.367188 C 93.148438 73.210938 92.910156 74.984375 91.234375 77.5 C 93.246094 75.488281 95.183594 73.570312 97.121094 71.703125 C 98.460938 70.265625 99.800781 68.851562 101.164062 67.488281 C 105.472656 63.511719 109.660156 59.605469 113.820312 55.964844 C 118.105469 52.492188 122.027344 48.777344 125.902344 45.351562 C 124.945312 47.007812 124.253906 48.660156 121.980469 50.648438 C 122.242188 50.503906 122.484375 50.359375 122.746094 50.214844 C 132.867188 42.886719 143.347656 37.375 154.949219 33.257812 C 154.351562 32.105469 151.625 33.207031 148.800781 34.476562 C 147.054688 34.382812 149.757812 33.351562 152.964844 32.179688 C 156.121094 30.957031 159.949219 30.046875 160.09375 29.113281 C 159.832031 30.527344 161.984375 30.574219 165.523438 29.878906 C 167.175781 29.496094 169.1875 29.066406 171.386719 28.609375 C 179.113281 26.476562 186.890625 25.0625 194.976562 24.417969 C 194.785156 23.554688 193.304688 23.460938 191.414062 23.652344 C 190.765625 23.746094 190.144531 23.820312 189.476562 23.914062 C 189.234375 23.960938 188.996094 23.984375 188.734375 24.035156 C 187.726562 23.699219 188.398438 23.460938 189.832031 23.265625 C 191.292969 22.117188 197.011719 22.691406 201.726562 21.113281 C 200.550781 20.105469 197.296875 20.367188 195.359375 19.84375 C 202.25 17.085938 204.644531 22.476562 212.921875 21.710938 C 212.132812 20.921875 210.289062 20.585938 207.945312 20.511719 C 208.757812 19.914062 210.839844 19.914062 210.457031 18.765625 C 219.8125 19.148438 229.214844 20.394531 238.523438 22.453125 C 238.140625 22.285156 237.78125 22.117188 237.46875 21.949219 C 240.84375 21.542969 242.851562 22.574219 244.839844 23.914062 C 246.871094 24.441406 248.882812 25.0625 250.890625 25.664062 C 251.65625 25.613281 252.375 25.542969 252.351562 24.800781 C 274.292969 31.652344 295.226562 43.484375 313.050781 59.390625 C 317.621094 63.488281 321.976562 67.847656 326.113281 72.445312 C 328.984375 75.441406 331.785156 78.507812 334.488281 81.691406 C 334.96875 82.53125 335.542969 83.441406 336.089844 84.328125 C 338.796875 86.003906 341.90625 92.589844 344.609375 96.039062 C 344.128906 95.777344 343.605469 95.273438 343.101562 94.652344 C 347.863281 101.980469 352.144531 109.671875 355.902344 117.71875 C 356.140625 118.652344 356.476562 119.683594 356.761719 120.664062 C 358.773438 122.820312 360.042969 129.074219 361.574219 133.195312 C 360.878906 130.390625 360.6875 127.734375 361.523438 127.0625 C 364.394531 130.222656 364.0625 136.761719 365.019531 140.621094 C 363.84375 139.804688 362.554688 136.882812 361.738281 133.9375 C 359.96875 131.925781 358.820312 125.863281 357.050781 121.742188 C 357.171875 122.101562 357.242188 122.414062 357.363281 122.773438 C 357.839844 124.570312 358.367188 126.488281 358.894531 128.476562 C 359.898438 132.453125 361.429688 136.621094 362.339844 141.195312 C 363.296875 145.746094 364.5625 150.441406 365.234375 155.328125 C 365.855469 160.214844 366.644531 165.148438 366.835938 170.058594 C 367.074219 173.964844 367.148438 177.867188 367.074219 181.773438 C 367.074219 181.796875 367.074219 181.84375 367.074219 181.871094 C 367.074219 182.011719 367.074219 182.15625 367.074219 182.277344 C 367.074219 182.78125 367.074219 183.308594 367.050781 183.808594 C 366.980469 200.671875 364.683594 217.632812 359.347656 233.898438 C 348.558594 267.601562 326.710938 298.457031 295.539062 318.695312 C 295.585938 318.121094 295.894531 317.523438 296.542969 316.851562 C 289.628906 321.644531 282.304688 325.90625 274.601562 329.546875 C 272.402344 330.816406 270.199219 332.085938 268.046875 333.332031 C 266.394531 334.242188 264.792969 335.175781 263.117188 335.96875 C 261.441406 336.710938 259.746094 337.429688 258.046875 338.101562 C 259.195312 336.710938 261.515625 335.535156 264.003906 334.242188 C 264.339844 334.050781 264.671875 333.882812 265.007812 333.691406 C 262.351562 334.722656 259.695312 335.703125 256.96875 336.589844 C 257.28125 335.726562 258.140625 334.9375 260.222656 334.289062 C 260.078125 334.316406 259.9375 334.363281 259.792969 334.410156 C 258.835938 334.746094 257.878906 335.105469 256.875 335.417969 C 254.027344 336.375 251.105469 337.355469 248.285156 338.316406 C 245.414062 339.105469 242.613281 339.753906 240.125 340.304688 C 242.78125 339.25 245.746094 338.339844 248.882812 337.238281 C 245.054688 338.292969 241.320312 339.441406 237.613281 340.6875 C 233.90625 341.667969 230.246094 342.652344 226.65625 343.609375 C 224.835938 344.039062 223.042969 344.542969 221.222656 344.855469 C 219.40625 345.140625 217.585938 345.40625 215.792969 345.597656 C 217.277344 344.542969 219.789062 344.015625 222.5625 343.417969 C 225.316406 342.722656 228.332031 342.101562 230.792969 341.285156 C 226.941406 341.476562 221.367188 342.410156 215.363281 342.699219 C 212.371094 342.890625 209.285156 343.082031 206.320312 343.273438 C 203.351562 343.296875 200.480469 343.203125 197.921875 343.082031 C 201.773438 342.628906 206.128906 342.578125 210.839844 342.078125 C 215.53125 341.597656 220.578125 341.621094 225.675781 340.78125 C 221.65625 339.226562 215.816406 338.507812 210.027344 338.074219 C 208.589844 337.957031 207.132812 337.835938 205.71875 337.714844 C 204.308594 337.476562 202.945312 337.261719 201.628906 337.046875 C 198.996094 336.566406 196.652344 335.992188 194.808594 335.203125 C 195.816406 335.632812 196.125 334.9375 195.765625 334.027344 C 192.753906 334.148438 187.703125 332.949219 184.472656 332.828125 C 186.339844 331.945312 191.507812 333.140625 195.503906 333.546875 C 195.027344 332.78125 194.140625 331.96875 192.753906 331.535156 C 192.511719 331.441406 192.296875 331.367188 192.082031 331.296875 C 192.394531 331.273438 192.65625 331.152344 192.800781 330.9375 C 192.441406 331.464844 187.871094 327.34375 191.964844 327.941406 C 186.988281 326.792969 182.394531 325.355469 178.085938 323.871094 C 173.851562 322.171875 169.925781 320.207031 166.148438 318.289062 C 170.382812 319.199219 177.175781 322.769531 184.164062 324.230469 C 191.054688 326.097656 197.824219 326.097656 200.359375 322.695312 C 197.898438 320.542969 195.382812 318.578125 191.964844 316.828125 C 188.566406 314.886719 184.140625 313.59375 177.847656 312.398438 C 177.535156 311.246094 177.894531 309.90625 176.53125 309.019531 C 176.890625 308.109375 180.503906 310.816406 183.566406 310.601562 C 184.664062 310.410156 184.855469 309.449219 186.820312 309.976562 C 186.746094 309.664062 186.554688 309.378906 186.363281 309.113281 C 184.164062 308.875 181.148438 308.515625 179.019531 308.445312 C 178.875 307.390625 180.046875 307.535156 181.269531 307.726562 C 177.703125 306.433594 175 305.953125 172.25 305.234375 C 169.472656 304.613281 166.53125 304.15625 162.582031 302.933594 C 163.46875 301.953125 161.648438 301.328125 160.214844 300.660156 C 163.828125 301.472656 168.996094 302.597656 174.1875 304.445312 C 176.769531 305.378906 179.523438 305.976562 182.058594 306.839844 C 183.183594 307.175781 184.28125 307.558594 185.359375 307.941406 C 184.449219 307.175781 183.351562 306.480469 182.535156 305.664062 C 184.785156 305.164062 190.457031 310.792969 191.53125 306 C 191.628906 304.324219 187.65625 304.277344 184.953125 303.703125 C 185.335938 302.457031 187.585938 302.886719 189.953125 303.367188 C 189.714844 301.570312 188.804688 300.277344 188.996094 299.367188 C 187.320312 299.125 185.789062 298.695312 185.238281 298.382812 C 185.503906 297.953125 186.269531 298 186.386719 297.425781 C 174.59375 294.863281 186.769531 296.46875 190.695312 298.191406 C 190.71875 298.191406 190.742188 298.167969 190.789062 298.167969 C 188.636719 296.15625 187.34375 295.269531 185.980469 294.527344 C 184.617188 293.832031 183.207031 293.136719 181.054688 291.4375 C 181.84375 291.003906 183.253906 291.507812 184.738281 292.109375 C 186.246094 292.632812 187.800781 293.351562 188.757812 293.664062 C 189.761719 293.257812 190.742188 292.824219 191.675781 292.371094 C 190.359375 290.285156 184.640625 291.820312 184.019531 290.40625 C 184.28125 289.617188 184.523438 288.824219 183.566406 288.464844 C 185.742188 287.964844 188.734375 291.101562 192.703125 291.363281 C 192.632812 290.550781 189.332031 289.6875 192.871094 290.214844 C 191.890625 288.898438 187.726562 289.042969 186.316406 287.914062 C 188.300781 287.699219 192.539062 287.84375 195.695312 288.296875 C 196.460938 286.835938 194.140625 286.886719 193.445312 286.167969 C 191.675781 285.757812 190.765625 286.191406 190.695312 287.484375 C 188.015625 285.28125 187.824219 283.316406 185 282.238281 C 183.972656 280.347656 188.683594 282.023438 186.171875 280.730469 C 187.585938 279.769531 190.957031 280.347656 194.402344 281.113281 C 195.265625 281.304688 196.125 281.472656 196.964844 281.640625 C 197.800781 281.734375 198.613281 281.78125 199.378906 281.808594 C 200.503906 281.832031 201.460938 281.78125 202.179688 281.542969 C 199.285156 281.351562 196.414062 281.015625 193.519531 280.585938 C 193.207031 280.539062 192.871094 280.488281 192.5625 280.441406 C 191.675781 280.296875 190.816406 280.128906 189.929688 279.960938 C 189.042969 279.796875 188.160156 279.628906 187.273438 279.460938 C 186.960938 279.386719 186.675781 279.316406 186.363281 279.242188 C 179.878906 277.78125 173.636719 275.699219 167.703125 273.039062 C 167.558594 272.96875 167.414062 272.894531 167.273438 272.847656 C 165.957031 272.25 164.640625 271.625 163.371094 270.980469 C 162.941406 270.765625 162.535156 270.546875 162.128906 270.332031 C 161.148438 269.828125 160.164062 269.304688 159.207031 268.753906 C 158.539062 268.367188 157.894531 267.984375 157.222656 267.578125 C 156.554688 267.171875 155.859375 266.765625 155.1875 266.355469 C 154.949219 266.210938 154.710938 266.070312 154.496094 265.925781 C 154.328125 266.164062 154.996094 266.738281 156.671875 267.625 C 154.757812 268.34375 151.933594 264.726562 150.761719 263.699219 C 148.203125 266.5 153.96875 267.339844 154.757812 269.230469 C 150.761719 268.511719 148.011719 264.609375 144.757812 263.722656 C 145.5 264.632812 148.132812 266.835938 151.121094 268.917969 C 149.375 268.199219 147.125 267.746094 144.972656 267.027344 C 144.46875 266.859375 143.96875 266.667969 143.511719 266.429688 C 144.851562 267.699219 146.097656 268.96875 147.078125 269.757812 C 146.792969 269.78125 146.503906 269.710938 146.21875 269.664062 C 146.265625 269.757812 146.359375 269.828125 146.410156 269.925781 C 141.863281 269.804688 139.277344 263.769531 133.941406 262.238281 C 133.488281 263.839844 137.554688 263.839844 137.53125 266.019531 C 137.988281 265.328125 139.542969 266.546875 141.144531 268.199219 C 142.746094 269.878906 144.6875 271.722656 145.453125 272.800781 C 140.859375 270.285156 137.914062 267.625 134.683594 265.160156 C 133.035156 263.960938 131.503906 262.570312 129.804688 261.0625 C 128.058594 259.601562 126.144531 257.996094 123.941406 256.152344 C 128.273438 260.679688 130.113281 265.445312 135.90625 270.765625 C 134.351562 266.570312 138.179688 271.9375 138.320312 273.542969 C 139.710938 273.015625 141.839844 274.355469 144.183594 276.203125 C 143.847656 276.65625 143.011719 275.9375 142.363281 275.652344 C 149.878906 283.21875 161.433594 288.15625 175.023438 293.425781 C 172.632812 292.96875 170.261719 292.394531 167.917969 291.773438 C 165.597656 291.054688 163.394531 290.070312 161.195312 289.160156 C 160.453125 288.875 159.757812 288.539062 159.066406 288.226562 C 160.546875 289.113281 161.769531 290 161.886719 290.550781 C 163.226562 291.246094 163.585938 290.621094 164.710938 291.03125 C 165.191406 291.84375 163.277344 291.582031 161.027344 290.933594 C 158.777344 290.3125 156.386719 288.945312 155.738281 288.324219 C 156.097656 287.988281 156.839844 288.226562 157.078125 287.699219 C 151.410156 284.777344 151.933594 284.730469 154.160156 285.710938 C 152.390625 284.707031 150.691406 283.652344 148.992188 282.644531 C 147.078125 281.566406 145.378906 280.273438 143.679688 279.078125 C 142.675781 278.550781 141.671875 278.046875 140.691406 277.472656 C 138.65625 276.179688 136.765625 274.667969 134.875 273.207031 C 133.726562 272.367188 132.675781 271.484375 131.644531 270.546875 C 131.023438 270.164062 130.425781 269.78125 129.804688 269.445312 C 132.148438 271.867188 134.324219 274.117188 136.550781 276.152344 C 137.796875 276.824219 139.160156 277.78125 140.738281 278.882812 C 140.523438 279.027344 140.308594 279.078125 140.09375 279.125 C 140.117188 279.148438 140.140625 279.171875 140.1875 279.195312 C 141.957031 280.585938 143.679688 281.925781 145.402344 283.269531 C 147.222656 284.488281 149.113281 285.617188 151.027344 286.8125 C 158.683594 291.554688 167.820312 295.722656 181.21875 299.316406 C 178.253906 299.339844 175.121094 298.625 171.890625 297.640625 C 168.660156 296.707031 165.285156 295.605469 162.105469 294.046875 C 155.546875 291.339844 149.445312 287.746094 143.5625 285.6875 C 143.011719 284.96875 143.347656 284.875 143.65625 284.539062 C 143.441406 284.394531 143.203125 284.273438 142.988281 284.128906 C 140.09375 282.382812 137.148438 280.464844 134.46875 278.117188 C 133.082031 277.0625 131.742188 275.960938 130.425781 274.835938 C 131.144531 276.058594 131.597656 277.375 132.171875 276.800781 C 133.941406 279.101562 130.042969 277.496094 128.847656 276.296875 C 128.824219 277.640625 130.210938 279.796875 127.339844 278.09375 C 126.695312 279.339844 128.871094 281.066406 128.917969 282.476562 C 129.757812 282.742188 130.523438 283.078125 131.644531 283.867188 L 134.972656 286.167969 C 137.605469 287.605469 140.546875 289.304688 143.464844 291.292969 C 145.714844 292.875 148.226562 294.144531 150.453125 295.652344 C 152.75 297.066406 154.832031 298.648438 156.769531 299.84375 C 157.292969 300.394531 150.882812 297.570312 147.148438 296.417969 C 147.175781 296.15625 147.269531 295.988281 147.414062 295.890625 C 143.082031 294.359375 139.160156 291.53125 133.320312 287.222656 C 133.105469 287.078125 132.890625 286.980469 132.675781 286.835938 C 132.699219 286.8125 132.699219 286.789062 132.722656 286.789062 C 132.554688 286.667969 132.410156 286.574219 132.246094 286.429688 C 132.4375 286.527344 132.601562 286.597656 132.792969 286.695312 C 133.34375 286.167969 132.746094 285.519531 131.910156 284.824219 C 126.835938 282.742188 123.222656 280.128906 119.347656 277.496094 C 117.507812 276.011719 115.617188 274.476562 113.535156 272.824219 C 111.429688 271.171875 109.058594 269.445312 106.546875 267.265625 C 106.714844 263.457031 99.585938 260.65625 96.714844 255.050781 C 97.191406 255.863281 98.054688 258.90625 99.515625 261.710938 C 100.328125 263.097656 101.261719 264.417969 102.289062 265.375 C 102.003906 264.75 101.859375 264.152344 101.953125 263.554688 C 102.742188 264.777344 103.628906 265.804688 104.539062 266.714844 C 104.847656 266.789062 105.136719 266.835938 105.449219 266.8125 C 105.734375 267.363281 105.734375 267.625 105.613281 267.769531 C 107.816406 269.828125 109.945312 271.457031 110.855469 273.949219 C 110.113281 272.511719 106.621094 270.261719 104.226562 267.890625 C 104.179688 267.890625 104.132812 267.914062 104.109375 267.914062 C 106.476562 269.972656 106.953125 270.261719 107.074219 272.394531 C 108.390625 273.445312 107.21875 271.027344 108.675781 272.367188 C 109.324219 274.09375 109.875 275.699219 112.648438 279.316406 C 113.34375 280.011719 113.988281 280.730469 114.707031 281.398438 C 115.183594 280.898438 114.5625 280.105469 113.796875 279.242188 C 117.960938 283.605469 122.578125 287.675781 127.554688 291.507812 C 127.292969 291.054688 127.242188 290.597656 127.601562 290.214844 C 129.515625 291.796875 131.644531 293.089844 133.726562 294.453125 C 133.226562 294.480469 131.429688 293.976562 129.828125 293.234375 C 140.714844 301.234375 153.394531 307.988281 167.964844 313.1875 C 167.941406 314.910156 162.488281 310.960938 162.414062 312.636719 C 165.476562 315.054688 173.78125 316.636719 179.089844 317.882812 C 180.550781 316.039062 175.070312 316.207031 172.964844 315.34375 C 170.527344 313.90625 181.84375 316.375 182.511719 317.402344 C 180.671875 318.527344 176.890625 318.097656 172.632812 317.140625 C 168.445312 315.917969 163.800781 314.121094 159.902344 313.019531 C 160.621094 312.757812 161.3125 312.492188 161.53125 311.703125 C 160.5 311.390625 159.472656 311.007812 158.46875 310.578125 C 157.988281 311.796875 158.683594 311.917969 155.355469 312.445312 C 154.519531 312.277344 154.066406 311.796875 153.777344 311.269531 C 153.273438 311.078125 152.773438 310.886719 152.246094 310.648438 C 149.734375 309.546875 147.054688 307.679688 145.117188 307.078125 C 146.886719 307.125 148.203125 307.582031 149.496094 308.203125 C 149.398438 307.628906 149.6875 307.175781 147.773438 305.976562 C 145.667969 306.382812 142.316406 305.066406 138.609375 303.152344 C 134.875 300.875 130.855469 297.929688 127.386719 295.867188 C 127.867188 295.820312 128.320312 295.75 128.703125 295.558594 C 127.890625 294.957031 127.078125 294.359375 126.261719 293.761719 C 125.953125 294.289062 125.710938 294.40625 123.175781 294.144531 C 120.519531 292.824219 123.105469 289.089844 120.066406 290.933594 C 117.863281 288.683594 118.820312 288.5625 118.65625 287.675781 C 115.472656 285.160156 112.503906 282.910156 110.136719 281.304688 C 110.472656 281.257812 110.640625 281.136719 110.710938 280.992188 C 108.414062 278.8125 105.78125 276.082031 103.316406 272.871094 C 101.859375 271.050781 100.375 269.207031 98.890625 267.339844 C 98.867188 267.316406 98.84375 267.289062 98.84375 267.265625 C 98.699219 267.867188 98.507812 268.609375 97.265625 267.722656 C 96.882812 268.394531 97.335938 269.085938 98.007812 269.734375 C 97.957031 269.636719 97.886719 269.542969 97.792969 269.421875 C 98.988281 269.613281 99.585938 270.453125 100.0625 271.457031 C 100.496094 271.867188 100.734375 272.203125 100.496094 272.464844 C 100.949219 273.613281 101.429688 274.835938 102.386719 275.722656 C 100.78125 275.9375 100.304688 274.117188 99.898438 272.753906 C 99.871094 272.753906 99.871094 272.777344 99.847656 272.777344 C 99.394531 272.226562 99.011719 271.84375 98.675781 271.507812 C 98.582031 271.601562 98.460938 271.699219 98.316406 271.867188 C 98.078125 271.507812 98.054688 271.242188 98.101562 270.980469 C 96.835938 269.925781 96.332031 270.164062 95.445312 269.160156 C 94.800781 267.554688 95.113281 266.378906 96.378906 265.636719 C 94.464844 262.789062 93.199219 262.402344 91.761719 262.164062 C 95.972656 265.230469 90.757812 262.957031 94.511719 267.027344 C 93.84375 267.195312 92.816406 265.542969 92.214844 265.949219 C 92.980469 268.800781 97.503906 273.253906 99.082031 276.371094 C 95.660156 272.65625 91.140625 267.9375 87.933594 263.554688 C 84.609375 259.265625 81.6875 255.960938 80.660156 255.746094 C 79.226562 255.960938 78.652344 249.949219 81.113281 254.140625 C 80.589844 252.414062 75.179688 246.738281 73.265625 241.277344 C 73.125 242.953125 73.601562 244.988281 71.59375 243.3125 C 73.101562 248.320312 73.292969 246.808594 75.78125 250.425781 C 75.085938 250.089844 74.367188 249.78125 73.675781 250.1875 C 76.019531 253.347656 76.136719 251.695312 76.472656 255.433594 C 69.25 243.574219 62.835938 227.742188 59.152344 211.214844 C 57.070312 203.164062 56.257812 194.707031 55.609375 186.636719 C 55.492188 182.613281 55.441406 178.636719 55.441406 174.828125 C 55.371094 170.992188 55.898438 167.351562 56.136719 163.855469 C 55.25 162.632812 56.449219 161.195312 57.332031 159.472656 C 57.523438 157.9375 57.765625 156.453125 58.003906 154.945312 C 57.453125 154.679688 56.234375 156.476562 57.09375 153.078125 C 57.765625 151.925781 58.457031 150.105469 59.175781 147.902344 C 59.246094 147.542969 59.296875 147.183594 59.367188 146.824219 C 60.300781 142.894531 61.28125 139.0625 62.261719 135.375 C 63.171875 131.660156 64.628906 128.257812 65.777344 124.953125 C 65.179688 123.421875 67.046875 122.292969 68.410156 120.664062 C 68.914062 119.421875 69.414062 118.152344 69.941406 116.90625 C 69.582031 116.304688 67.71875 117.984375 69.488281 114.820312 C 70.539062 113.792969 71.808594 111.996094 73.21875 109.765625 C 73.507812 109.191406 73.769531 108.59375 74.082031 108.042969 C 75.515625 105.261719 76.878906 102.582031 78.242188 100.113281 C 79.726562 97.742188 81.140625 95.5625 82.40625 93.644531 C 77.527344 100.066406 73.9375 106.53125 70.277344 112.808594 C 67.144531 119.347656 63.816406 125.746094 61.617188 133.003906 C 63.648438 122.988281 67.71875 113.71875 72.261719 105.121094 Z M 152.078125 309.691406 C 152.4375 309.859375 152.820312 310.023438 153.203125 310.191406 C 152.988281 309.546875 152.773438 309.1875 152.078125 309.691406 Z M 119.203125 263.984375 C 118.988281 263.769531 118.773438 263.53125 118.535156 263.3125 C 118.414062 263.722656 118.4375 264.105469 118.511719 264.511719 C 118.605469 264.273438 118.917969 264.222656 119.203125 263.984375 Z M 255.582031 31.988281 C 256.992188 32.417969 258.332031 32.824219 259.527344 33.089844 C 258.332031 32.585938 257.183594 32.128906 256.035156 31.675781 C 255.75 31.769531 255.582031 31.867188 255.582031 31.988281 Z M 95.039062 252.679688 C 93.820312 251.410156 92.625 249.804688 91.425781 248.292969 C 91.332031 248.367188 91.257812 248.390625 91.164062 248.511719 C 92.433594 251.027344 94.203125 253.949219 95.46875 253.277344 C 95.351562 253.109375 95.183594 252.894531 95.039062 252.679688 Z M 84.441406 235.550781 C 84.824219 236.03125 85.230469 236.4375 85.683594 236.726562 C 85.324219 235.957031 84.96875 235.121094 84.65625 234.042969 C 84.464844 234.449219 84.417969 234.976562 84.441406 235.550781 Z M 85.183594 237.898438 C 85.230469 237.96875 85.253906 238.042969 85.277344 238.136719 C 85.804688 238.90625 86.164062 239.480469 86.449219 239.984375 C 86.546875 240.101562 86.617188 240.246094 86.738281 240.367188 C 88.507812 242.617188 90.734375 244.675781 91.714844 245.78125 C 90.039062 241.777344 88.125 240.726562 86.5 238.1875 C 86.164062 238.210938 85.589844 237.851562 85.183594 237.898438 Z M 86.332031 254.257812 C 87.671875 256.367188 88.769531 257.851562 88.484375 256.4375 C 86.929688 254.523438 86.257812 252.628906 85.683594 251.121094 C 85.0625 249.636719 84.441406 248.535156 83.003906 248.054688 C 83.722656 249.203125 85.085938 252.078125 86.332031 254.257812 Z M 86.617188 258.953125 L 91.019531 265.542969 L 91.976562 264.847656 C 90.160156 262.980469 88.003906 256.988281 86.617188 258.953125 Z M 144.613281 305.640625 C 144.710938 305.570312 144.710938 305.496094 144.78125 305.425781 C 143.753906 305.042969 142.53125 304.492188 141.144531 303.75 C 138.152344 302.191406 134.421875 300.011719 130.761719 297.210938 C 133.75 300.109375 140.285156 303.316406 144.613281 305.640625 Z M 127.675781 273.039062 C 127.890625 272.96875 128.105469 272.992188 128.296875 273.015625 C 125.066406 270.214844 121.957031 267.457031 118.773438 265.300781 C 119.324219 266.453125 120.519531 267.625 121.957031 268.871094 C 123.105469 269.828125 124.347656 270.933594 125.6875 271.960938 C 127.027344 272.992188 128.367188 274.09375 129.492188 275.339844 C 129.828125 274.714844 128.488281 273.855469 127.675781 273.039062 Z M 143.894531 283.101562 C 143.441406 282.957031 142.867188 282.667969 142.199219 282.308594 C 142.746094 282.691406 143.320312 283.078125 143.894531 283.460938 C 143.894531 283.339844 143.921875 283.246094 143.894531 283.101562 Z M 141.933594 266.355469 C 141.214844 265.566406 140.476562 264.777344 139.660156 264.007812 C 139.875 264.941406 140.808594 265.636719 141.933594 266.355469 Z M 139.757812 263.386719 C 139.734375 263.339844 139.683594 263.3125 139.660156 263.265625 C 139.660156 263.289062 139.660156 263.3125 139.660156 263.339844 C 139.683594 263.339844 139.734375 263.363281 139.757812 263.386719 Z M 358.75 136.546875 C 357.792969 133.503906 356.835938 131.085938 356.738281 131.351562 C 356.738281 131.375 356.738281 131.398438 356.738281 131.421875 C 357.578125 133.625 358.222656 135.324219 358.75 136.546875 Z M 344.035156 100.785156 C 343.773438 100.015625 342.839844 98.386719 341.378906 96.328125 C 342.625 98.484375 343.484375 99.945312 344.058594 100.832031 C 344.035156 100.808594 344.035156 100.808594 344.035156 100.785156 Z M 336.664062 85.261719 C 336.785156 85.429688 336.855469 85.597656 336.976562 85.765625 C 337.742188 86.820312 338.484375 87.921875 339.226562 88.972656 C 338.386719 87.65625 337.527344 86.363281 336.664062 85.261719 Z M 201.054688 22.644531 C 201.558594 23.363281 203.398438 23.746094 206.054688 23.9375 C 208.304688 24.035156 211.152344 24.179688 214.308594 24.34375 C 215.148438 24.320312 215.914062 24.25 216.511719 24.105469 C 216.199219 24.226562 216.03125 24.34375 215.863281 24.441406 C 217.179688 24.511719 218.519531 24.609375 219.882812 24.703125 C 219.597656 23.84375 224.882812 24.464844 231.992188 25.664062 C 233.570312 25.972656 235.246094 26.382812 236.96875 26.789062 C 239.957031 27.292969 242.566406 28.011719 244.695312 28.777344 C 245.292969 28.921875 245.890625 29.089844 246.488281 29.230469 C 246.753906 29.304688 247.015625 29.375 247.277344 29.472656 C 245.964844 28.035156 251.417969 30.550781 255.101562 31.316406 C 253.332031 30.621094 251.585938 29.925781 249.910156 29.304688 C 246.847656 28.203125 243.859375 27.460938 240.988281 26.644531 C 238.210938 25.925781 235.507812 25.183594 232.875 24.65625 C 232.15625 24.5625 231.488281 24.464844 230.746094 24.371094 C 230.746094 24.34375 230.769531 24.34375 230.792969 24.320312 C 228.6875 23.984375 226.605469 23.652344 224.527344 23.386719 C 221.847656 23.074219 219.191406 22.667969 216.460938 22.550781 C 213.734375 22.476562 210.984375 22.429688 208.113281 22.453125 C 205.839844 22.382812 203.472656 22.476562 201.054688 22.644531 Z M 67.261719 107.371094 C 68.195312 104.929688 71.855469 100.542969 70.996094 99.417969 C 69.988281 100.902344 69.128906 100.785156 68.125 102.125 C 69.796875 102.4375 66.351562 106.507812 67.261719 107.371094 Z M 161.171875 309.808594 C 162.964844 310.167969 165 310.167969 165.5 310.023438 C 163.132812 309.257812 160.738281 308.5625 158.492188 307.511719 C 157.941406 308.589844 159.375 309.449219 161.171875 309.808594 Z M 193.015625 320.230469 C 190.023438 320.492188 187.847656 320.0625 185.886719 319.632812 C 183.925781 319.128906 182.175781 318.746094 179.832031 319.320312 C 181.84375 319.390625 184.90625 320.492188 187.632812 320.902344 C 190.359375 321.332031 192.679688 321.453125 193.015625 320.230469 Z M 161.074219 278.046875 C 165.429688 279.195312 168.898438 283.722656 171.960938 282.597656 C 169.160156 281.398438 164.160156 277.757812 161.074219 278.046875 Z M 180 285.160156 C 177.824219 284.992188 173.445312 281.878906 173.179688 284.226562 C 176.050781 283.628906 178.828125 286.957031 180 285.160156 Z M 115.351562 317.5 C 118.175781 319.296875 121.359375 321.835938 124.613281 324.109375 C 127.867188 326.339844 131.359375 328.015625 134.300781 328.636719 C 131.214844 326.839844 127.316406 324.613281 124.015625 322.171875 C 120.617188 319.824219 117.507812 317.882812 115.351562 317.5 Z M 57.667969 240.796875 C 58.289062 240.390625 58.746094 239.957031 57.859375 238.019531 L 56.234375 238.640625 C 57.191406 241.660156 58.503906 244.390625 59.726562 244.078125 C 59.054688 242.449219 58.363281 241.613281 57.667969 240.796875 Z M 146 321.355469 C 149.589844 322.457031 155.261719 325.644531 157.917969 325.59375 C 161.960938 327.152344 165.714844 328.277344 167.152344 327.726562 C 164.542969 326.914062 160.691406 325.476562 156.886719 324.109375 C 153.109375 322.722656 149.496094 320.996094 146.957031 320.398438 C 148.324219 321.019531 150.046875 321.929688 151.933594 322.886719 C 152.558594 323.222656 153.226562 323.535156 153.875 323.871094 C 150.785156 322.53125 147.605469 321.066406 146 321.355469 Z M 124.039062 286.046875 C 122.292969 284.296875 120.785156 283.101562 119.707031 282.285156 C 118.65625 281.421875 117.960938 281.0625 117.746094 281.136719 C 117.339844 281.230469 118.871094 283.269531 124.039062 286.046875 Z M 108.054688 282.71875 C 112.769531 286.574219 118.75 291.652344 125.066406 296.347656 C 125.042969 295.988281 124.996094 295.652344 124.398438 295.222656 C 127.195312 294.957031 127.816406 298.71875 130.472656 300.132812 C 130.449219 300.132812 130.425781 300.132812 130.402344 300.15625 C 132.820312 301.785156 135.234375 303.34375 137.628906 304.660156 C 135.714844 304.253906 133.058594 302.671875 130.304688 300.804688 C 130.019531 300.609375 129.757812 300.417969 129.46875 300.226562 C 129.0625 300.132812 128.679688 299.84375 128.367188 299.484375 C 126.238281 298 124.179688 296.46875 122.433594 295.199219 L 114.992188 289.257812 C 112.601562 287.171875 110.351562 284.921875 108.054688 282.71875 Z M 125.855469 296.945312 C 126.359375 297.304688 126.859375 297.664062 127.363281 298.023438 C 126.8125 297.113281 126.359375 296.417969 125.855469 296.945312 Z M 51.519531 168.863281 C 51.566406 166.515625 51.757812 165.460938 52.117188 165.507812 C 51.855469 167.136719 51.613281 168.863281 51.351562 170.660156 C 51.183594 170.46875 51.066406 170.226562 50.847656 170.058594 C 50.683594 174.347656 50.25 179.113281 50.324219 184.144531 C 50.273438 189.175781 50.109375 194.492188 50.632812 199.714844 C 51.015625 204.960938 51.449219 210.207031 52.597656 214.972656 C 53.648438 219.765625 54.628906 224.292969 56.328125 227.933594 C 55.730469 224.21875 55.085938 220.292969 54.460938 216.316406 C 55.035156 219.09375 55.683594 222.015625 56.519531 225.011719 C 57.789062 229.898438 58.984375 235.046875 60.851562 239.984375 C 62.574219 244.941406 64.367188 249.898438 66.6875 254.210938 C 68.9375 258.570312 71.066406 262.667969 73.648438 265.757812 C 67.621094 252.34375 60.203125 236.367188 57.90625 222.878906 C 58.289062 223.742188 58.601562 225.203125 59.175781 225.058594 C 57.691406 223.238281 56.925781 220.125 56.449219 217.273438 C 55.96875 214.664062 55.371094 212.386719 53.792969 211.523438 C 53.671875 210.636719 53.554688 209.753906 53.433594 208.867188 C 53.527344 209.226562 53.648438 209.585938 53.746094 209.921875 C 52.90625 206.398438 53.097656 205.726562 54.4375 207.308594 C 53.363281 203.957031 52.953125 199.953125 52.5 195.714844 C 52.285156 193.605469 52.117188 191.425781 51.972656 189.222656 C 51.949219 188.671875 51.949219 188.097656 51.949219 187.546875 C 51.972656 185.796875 52.070312 184.074219 52.214844 182.394531 C 52.355469 183.332031 52.285156 184.816406 52.859375 184.839844 C 51.902344 182.683594 51.949219 179.472656 52.238281 176.597656 C 52.332031 175.304688 52.378906 174.085938 52.285156 173.03125 C 52.332031 172.046875 52.355469 170.992188 52.453125 170.058594 C 52.570312 168.742188 52.667969 167.472656 52.761719 166.226562 C 52.8125 166.300781 52.835938 166.371094 52.882812 166.464844 C 52.859375 165.773438 52.882812 165.03125 52.90625 164.3125 C 52.929688 163.785156 52.953125 163.28125 53.003906 162.777344 C 53.195312 160.238281 53.601562 157.554688 54.03125 154.777344 C 54.367188 152.667969 54.773438 150.535156 55.203125 148.382812 C 55.632812 146.226562 56.328125 144.117188 56.902344 142.007812 C 56.902344 141.984375 56.925781 141.960938 56.925781 141.9375 C 57.023438 142.417969 57.214844 142.917969 57.453125 143.160156 C 58.554688 138.417969 60.203125 133.792969 61.6875 129.121094 C 61.449219 126.199219 58.554688 137.53125 57.453125 140.644531 C 57.382812 140.644531 57.355469 140.738281 57.285156 140.765625 C 58.386719 137.003906 59.390625 133.289062 60.609375 130.007812 C 61.949219 126.34375 63.125 123.011719 63.890625 120.234375 C 62.574219 123.0625 60.96875 126.65625 59.269531 130.65625 C 57.714844 134.703125 56.351562 139.253906 54.988281 143.804688 C 54.269531 146.082031 53.746094 148.382812 53.363281 150.703125 C 52.929688 153.003906 52.546875 155.257812 52.238281 157.410156 C 51.949219 159.566406 51.613281 161.628906 51.542969 163.542969 C 51.421875 165.507812 51.449219 167.28125 51.519531 168.863281 Z M 130.640625 312.011719 C 128.320312 310.550781 124.972656 308.15625 121.667969 305.855469 C 118.367188 303.535156 115.328125 300.945312 113.03125 299.699219 C 114.179688 300.660156 115.617188 301.976562 117.195312 303.390625 C 118.75 304.851562 120.472656 306.3125 122.265625 307.558594 C 125.761719 310.121094 129.109375 312.179688 130.640625 312.011719 Z M 47.8125 157.050781 C 47.59375 158.824219 47.429688 160.644531 47.355469 162.394531 C 47.378906 164.167969 47.453125 165.84375 47.523438 167.28125 C 47.476562 165.484375 47.570312 163.640625 47.859375 161.867188 C 48.195312 160.09375 48.601562 158.347656 48.984375 156.691406 C 49.75 153.410156 50.441406 150.535156 50.226562 148.476562 C 49.007812 150.25 48.242188 153.507812 47.8125 157.050781 Z M 192.035156 331.25 C 187.917969 329.8125 190.503906 331.417969 192.035156 331.25 Z M 91.117188 73.285156 C 92.648438 71.152344 97.3125 67.894531 96.785156 66.578125 C 95.421875 67.75 94.632812 67.390625 93.316406 68.445312 C 94.824219 69.1875 90.445312 72.230469 91.117188 73.285156 Z M 175.503906 281.375 C 173.015625 280.824219 169.160156 278.117188 167.582031 278.957031 C 170.09375 280.703125 172.582031 281.6875 175.503906 281.375 Z M 365.210938 136.859375 C 365.617188 138.390625 366.023438 139.878906 366.382812 141.265625 C 367.195312 144.046875 368.03125 146.441406 369.0625 148.046875 C 367.457031 142.585938 366.140625 136.070312 363.75 132.261719 C 364.253906 133.816406 364.730469 135.351562 365.210938 136.859375 Z M 239.957031 342.125 C 238.882812 344.113281 237.949219 346.101562 235.652344 347.632812 C 239.742188 347.515625 240.269531 346.195312 243.308594 345.574219 C 243.066406 343.753906 242.0625 342.53125 239.957031 342.125 Z M 370.136719 182.539062 C 370.210938 178.5625 372.21875 172.359375 370.257812 168.550781 C 368.152344 169.484375 368.246094 180.3125 370.136719 182.539062 Z M 167.726562 324.757812 C 169.328125 326.601562 177.679688 329.929688 181.101562 329.117188 C 177.441406 327.488281 170.238281 324.109375 167.726562 324.757812 Z M 352.3125 254.835938 C 351.070312 257.421875 349.898438 259.863281 348.773438 262.234375 C 347.550781 264.558594 346.402344 266.882812 345.304688 269.207031 C 346.808594 266.761719 348.414062 264.128906 350.039062 261.421875 C 351.523438 258.644531 353.03125 255.792969 354.539062 252.988281 C 357.601562 247.433594 359.5625 241.707031 360.617188 237.132812 C 359.109375 240.558594 357.71875 243.71875 356.40625 246.664062 C 354.945312 249.589844 353.582031 252.296875 352.3125 254.835938 Z M 373.414062 174.875 C 373.726562 178.253906 374.15625 181.582031 374.347656 184.839844 C 374.492188 188.121094 374.636719 191.285156 374.78125 194.375 C 374.898438 190.757812 374.996094 187.117188 374.972656 183.546875 C 374.78125 179.976562 374.492188 176.457031 374.15625 173.03125 C 373.964844 171.328125 373.773438 169.652344 373.582031 168 C 373.320312 166.347656 372.960938 164.765625 372.625 163.183594 C 371.933594 160.070312 371.144531 157.101562 370.28125 154.371094 C 371.574219 161.222656 372.890625 168.09375 373.414062 174.875 Z M 373.414062 174.875 " clip-rule="nonzero"/></clipPath><linearGradient x1="-10.356399" gradientTransform="matrix(-2.364877, -0.36341, 0.362975, -2.367709, 346.890656, 370.139886)" y1="68.556999" x2="146.460135" gradientUnits="userSpaceOnUse" y2="68.556999" id="c0736c921f"><stop stop-opacity="1" stop-color="rgb(74.099731%, 87.799072%, 99.598694%)" offset="0"/><stop stop-opacity="1" stop-color="rgb(74.099731%, 87.799072%, 99.598694%)" offset="0.0625"/><stop stop-opacity="1" stop-color="rgb(73.916626%, 87.710571%, 99.604797%)" offset="0.09375"/><stop stop-opacity="1" stop-color="rgb(73.544312%, 87.532043%, 99.620056%)" offset="0.125"/><stop stop-opacity="1" stop-color="rgb(73.165894%, 87.350464%, 99.633789%)" offset="0.15625"/><stop stop-opacity="1" stop-color="rgb(72.789001%, 87.167358%, 99.647522%)" offset="0.1875"/><stop stop-opacity="1" stop-color="rgb(72.410583%, 86.985779%, 99.662781%)" offset="0.21875"/><stop stop-opacity="1" stop-color="rgb(72.032166%, 86.804199%, 99.676514%)" offset="0.25"/><stop stop-opacity="1" stop-color="rgb(71.655273%, 86.62262%, 99.690247%)" offset="0.28125"/><stop stop-opacity="1" stop-color="rgb(71.276855%, 86.44104%, 99.705505%)" offset="0.3125"/><stop stop-opacity="1" stop-color="rgb(70.898438%, 86.25946%, 99.719238%)" offset="0.34375"/><stop stop-opacity="1" stop-color="rgb(70.521545%, 86.076355%, 99.734497%)" offset="0.375"/><stop stop-opacity="1" stop-color="rgb(70.143127%, 85.894775%, 99.74823%)" offset="0.40625"/><stop stop-opacity="1" stop-color="rgb(69.764709%, 85.713196%, 99.761963%)" offset="0.4375"/><stop stop-opacity="1" stop-color="rgb(69.387817%, 85.531616%, 99.777222%)" offset="0.46875"/><stop stop-opacity="1" stop-color="rgb(69.009399%, 85.350037%, 99.790955%)" offset="0.5"/><stop stop-opacity="1" stop-color="rgb(68.630981%, 85.168457%, 99.804688%)" offset="0.53125"/><stop stop-opacity="1" stop-color="rgb(68.254089%, 84.985352%, 99.819946%)" offset="0.5625"/><stop stop-opacity="1" stop-color="rgb(67.875671%, 84.803772%, 99.833679%)" offset="0.59375"/><stop stop-opacity="1" stop-color="rgb(67.497253%, 84.622192%, 99.847412%)" offset="0.625"/><stop stop-opacity="1" stop-color="rgb(67.120361%, 84.440613%, 99.862671%)" offset="0.65625"/><stop stop-opacity="1" stop-color="rgb(66.741943%, 84.259033%, 99.876404%)" offset="0.6875"/><stop stop-opacity="1" stop-color="rgb(66.363525%, 84.077454%, 99.890137%)" offset="0.71875"/><stop stop-opacity="1" stop-color="rgb(65.986633%, 83.895874%, 99.905396%)" offset="0.75"/><stop stop-opacity="1" stop-color="rgb(65.608215%, 83.712769%, 99.919128%)" offset="0.78125"/><stop stop-opacity="1" stop-color="rgb(65.229797%, 83.531189%, 99.932861%)" offset="0.8125"/><stop stop-opacity="1" stop-color="rgb(64.852905%, 83.349609%, 99.94812%)" offset="0.84375"/><stop stop-opacity="1" stop-color="rgb(64.474487%, 83.16803%, 99.961853%)" offset="0.875"/><stop stop-opacity="1" stop-color="rgb(64.096069%, 82.98645%, 99.975586%)" offset="0.90625"/><stop stop-opacity="1" stop-color="rgb(63.719177%, 82.804871%, 99.990845%)" offset="0.9375"/><stop stop-opacity="1" stop-color="rgb(63.514709%, 82.705688%, 99.998474%)" offset="1"/></linearGradient></defs><g clip-path="url(#2d2e5974ba)"><g clip-path="url(#2057c2e5b5)"><path fill="url(#c0736c921f)" d="M 367.386719 399.964844 L 424.90625 24.765625 L 54.054688 -32.222656 L -3.464844 342.972656 Z M 367.386719 399.964844 " fill-rule="nonzero"/></g></g><path fill="#ffaecc" d="M 229.726562 132.167969 C 248.800781 175.507812 241.164062 219.933594 217.953125 243.859375 C 194.746094 267.785156 128.992188 314.773438 74.5625 229.300781 C 20.132812 143.832031 139.976562 65.773438 193.804688 98.761719 C 227.09375 119.152344 229.726562 132.167969 229.726562 132.167969 Z M 229.726562 132.167969 " fill-opacity="1" fill-rule="nonzero"/><path fill="#fec8dd" d="M 130.882812 146.511719 C 111.5 171.054688 104.488281 213.222656 130.882812 240.6875 C 157.277344 268.15625 201.082031 257.367188 232.003906 262.265625 C 262.925781 267.167969 301.058594 267.167969 308.859375 224.011719 C 316.699219 180.855469 298.105469 170.066406 245.277344 139.636719 C 192.453125 109.207031 168.070312 99.40625 130.882812 146.511719 Z M 130.882812 146.511719 " fill-opacity="1" fill-rule="nonzero"/><path fill="#cdb4db" d="M 274.378906 234.90625 C 266.199219 234.839844 257.203125 234.003906 248.832031 234.3125 C 239.945312 234.660156 231.445312 237.621094 222.714844 239.011719 C 207.328125 241.144531 193.265625 230.882812 185.050781 218.679688 C 179.007812 210.035156 176.761719 199.234375 177.960938 188.785156 C 178.183594 185.289062 179.621094 182.21875 180.917969 179.101562 C 182.652344 174.9375 184.582031 170.84375 187.398438 167.265625 C 196.65625 156.042969 209.742188 148.996094 220.789062 139.753906 C 221.871094 138.902344 222.621094 137.785156 223.253906 136.570312 C 226.699219 129.472656 230.273438 121.742188 237.84375 118.242188 C 250.167969 111.398438 266.332031 113.371094 276.863281 122.757812 C 279.492188 125.148438 281.683594 127.949219 284.34375 130.289062 C 292.023438 137.40625 299.609375 146.070312 310.285156 148.332031 C 321.589844 149.304688 327.464844 140.910156 339.578125 144.726562 C 351.300781 147.8125 355.269531 161.441406 354.753906 172.308594 C 353.882812 182.148438 349.929688 191.511719 344.644531 199.769531 C 327.488281 224.363281 304.210938 235.449219 274.378906 234.90625 Z M 274.378906 234.90625 " fill-opacity="1" fill-rule="nonzero"/><g fill="#000000" fill-opacity="1"><g transform="translate(96.166247, 192.466659)"><g><path d="M -83.292969 51.121094 C -78.089844 51.121094 -72.882812 49.976562 -67.675781 48.625 C -33.214844 39.566406 -1.355469 23.324219 20.40625 -2.394531 C 25.300781 -8.121094 29.152344 -24.570312 36.960938 -24.570312 C 46.539062 -24.570312 48.9375 -2.289062 60.597656 0 C 60.910156 0.105469 61.222656 0.105469 61.535156 0.105469 C 65.804688 0.105469 68.820312 -3.644531 68.820312 -7.601562 C 68.820312 -9.164062 68.511719 -10.722656 67.886719 -12.183594 C 57.472656 -26.03125 47.894531 -49.871094 27.488281 -49.871094 C 19.992188 -49.871094 21.96875 -40.191406 20.199219 -35.503906 C 14.578125 -4.0625 -10.515625 15.929688 -35.921875 30.195312 C -50.082031 38.210938 -67.574219 46.75 -84.128906 46.75 C -85.378906 46.75 -86.523438 46.75 -87.667969 46.644531 C -89.75 46.4375 -91 44.667969 -92.664062 44.667969 C -93.082031 44.667969 -93.394531 44.769531 -93.8125 44.980469 C -93.707031 45.394531 -93.601562 45.8125 -93.601562 46.332031 C -93.601562 46.75 -93.707031 47.0625 -93.707031 47.476562 C -93.707031 50.914062 -86.625 51.121094 -83.292969 51.121094 Z M -83.292969 51.121094 "/></g></g></g><g fill="#000000" fill-opacity="1"><g transform="translate(166.33953, 192.466659)"><g><path d="M 10.621094 3.019531 C 11.453125 3.019531 12.285156 2.394531 12.910156 1.5625 C 17.386719 -4.476562 20.617188 -7.078125 27.695312 -9.996094 C 34.566406 -12.804688 45.5 -11.140625 49.144531 -18.949219 C 49.664062 -19.992188 49.976562 -21.238281 49.976562 -22.386719 C 49.976562 -23.53125 49.769531 -24.570312 49.144531 -25.613281 C 43.3125 -34.984375 31.027344 -39.667969 20.304688 -39.667969 C 10.097656 -39.667969 1.25 -35.296875 1.25 -26.550781 C 1.25 -22.175781 4.582031 -17.386719 8.851562 -17.386719 C 13.953125 -17.386719 16.660156 -25.71875 22.074219 -26.964844 C 23.011719 -27.175781 24.882812 -27.382812 26.863281 -27.382812 C 30.820312 -27.382812 32.902344 -26.652344 32.902344 -23.53125 C 32.902344 -22.59375 32.691406 -21.761719 32.070312 -21.238281 C 26.445312 -16.136719 13.429688 -17.492188 8.851562 -6.871094 C 8.121094 -5.207031 7.289062 -3.226562 7.289062 -1.355469 C 7.289062 0.207031 8.328125 3.019531 10.621094 3.019531 Z M 10.621094 3.019531 "/></g></g></g><g fill="#000000" fill-opacity="1"><g transform="translate(217.563938, 192.466659)"><g><path d="M 31.445312 8.015625 C 39.773438 5.832031 45.605469 -2.289062 48 -9.996094 C 48.832031 -12.804688 49.351562 -15.824219 49.351562 -18.84375 C 49.351562 -32.902344 38.730469 -43.625 25.820312 -43.625 C 25.09375 -43.625 24.363281 -43.519531 23.636719 -43.519531 C 14.578125 -40.917969 1.457031 -39.878906 -0.3125 -28.007812 C -0.3125 -24.257812 2.707031 -20.511719 6.769531 -20.511719 C 14.160156 -20.511719 15.097656 -32.171875 22.90625 -32.171875 C 23.53125 -32.171875 24.15625 -31.964844 25.507812 -31.964844 C 34.464844 -31.964844 38.835938 -20.71875 38.835938 -14.472656 C 38.835938 -10.515625 37.796875 -6.558594 36.023438 -3.4375 C 34.359375 -0.519531 28.839844 3.019531 28.839844 6.246094 C 28.839844 7.914062 30.609375 7.703125 31.445312 8.015625 Z M 8.640625 5.308594 C 8.640625 6.664062 9.890625 7.808594 11.972656 7.808594 C 18.742188 7.808594 23.738281 -1.042969 23.738281 -6.871094 C 23.738281 -7.390625 23.738281 -8.015625 23.636719 -8.640625 C 22.699219 -10.621094 20.929688 -11.453125 19.054688 -11.453125 C 15.097656 -11.453125 11.035156 -8.640625 11.035156 -5.207031 C 11.035156 -3.957031 11.453125 -2.601562 11.453125 -1.25 C 11.453125 1.144531 8.640625 3.332031 8.640625 5.308594 Z M 8.640625 5.308594 "/></g></g></g><g fill="#000000" fill-opacity="1"><g transform="translate(268.996582, 192.466659)"><g><path d="M 16.242188 9.265625 C 21.863281 9.265625 22.386719 4.164062 22.386719 -0.3125 L 22.386719 -3.644531 C 22.386719 -9.890625 21.863281 -16.035156 21.136719 -22.175781 C 20.617188 -26.132812 19.78125 -30.195312 19.78125 -34.046875 C 19.78125 -35.398438 19.886719 -36.753906 19.886719 -38.105469 C 19.886719 -39.667969 18.53125 -50.601562 18.53125 -61.742188 C 18.53125 -76.109375 19.886719 -83.292969 28.632812 -83.292969 C 39.042969 -83.292969 43.210938 -78.089844 45.8125 -69.757812 C 46.332031 -69.65625 46.644531 -69.550781 46.957031 -69.550781 C 48.101562 -69.550781 48.207031 -70.28125 49.976562 -70.59375 C 50.183594 -71.425781 50.289062 -72.464844 50.289062 -73.507812 C 50.289062 -83.816406 36.128906 -91.519531 26.03125 -91.519531 C 10.621094 -91.519531 8.226562 -81.316406 8.226562 -67.261719 C 8.226562 -60.910156 8.953125 -54.351562 8.953125 -49.039062 C 8.953125 -46.332031 8.746094 -44.042969 8.433594 -42.375 C 6.144531 -41.230469 3.332031 -39.253906 3.332031 -36.023438 C 3.332031 -33.003906 4.789062 -29.257812 5.207031 -26.03125 C 6.246094 -18.53125 7.183594 1.25 11.140625 6.769531 C 12.285156 8.433594 14.367188 9.265625 16.242188 9.265625 Z M 16.242188 9.265625 "/></g></g></g><g fill="#000000" fill-opacity="1"><g transform="translate(298.565144, 192.466659)"><g><path d="M 24.988281 6.976562 C 31.757812 6.976562 38.417969 4.164062 44.042969 1.144531 C 55.703125 -5.207031 69.445312 -15.511719 74.132812 -28.632812 C 74.238281 -29.257812 74.238281 -29.777344 74.238281 -30.402344 C 74.238281 -35.398438 71.007812 -41.648438 64.65625 -41.648438 C 61.949219 -41.648438 57.992188 -37.691406 57.785156 -34.359375 C 58.097656 -33.003906 58.304688 -31.757812 58.304688 -30.507812 C 58.304688 -19.367188 41.648438 -3.539062 28.007812 -3.539062 C 21.34375 -3.539062 16.035156 -6.871094 14.265625 -13.117188 C 24.15625 -15.410156 34.566406 -17.074219 42.6875 -23.425781 C 48.832031 -28.214844 53.203125 -34.671875 53.203125 -42.167969 C 53.203125 -51.332031 46.019531 -54.039062 39.148438 -54.039062 C 18.324219 -54.039062 9.683594 -38.210938 5.414062 -23.636719 C 3.75 -20.199219 -1.875 -19.886719 -1.875 -15.304688 C -1.875 -11.972656 2.601562 -12.496094 4.269531 -10.515625 C 5.308594 -0.519531 15.097656 6.976562 24.988281 6.976562 Z M 13.328125 -21.136719 C 13.328125 -29.777344 20.304688 -47.6875 35.191406 -47.6875 C 40.710938 -47.6875 45.394531 -43.3125 45.394531 -37.484375 C 45.394531 -36.859375 45.292969 -36.128906 45.1875 -35.503906 C 43.730469 -27.488281 35.816406 -24.257812 29.152344 -21.449219 L 27.175781 -20.617188 C 22.800781 -19.679688 18.84375 -17.910156 14.054688 -17.910156 C 13.535156 -18.949219 13.328125 -19.992188 13.328125 -21.136719 Z M 13.328125 -21.136719 "/></g></g></g><g fill="#000000" fill-opacity="1"><g transform="translate(90.932151, 90.50512)"><g><path d="M 3.347656 7.71875 C 3.625 7.316406 3.71875 6.882812 3.71875 6.476562 C 3.71875 5.394531 3.070312 4.246094 2.945312 3.222656 C 2.820312 2.261719 2.726562 1.300781 2.726562 0.339844 C 2.726562 -3.71875 4.03125 -7.5 7.59375 -9.886719 C 8.523438 -10.507812 9.578125 -10.757812 10.664062 -10.757812 C 11.5 -10.757812 12.335938 -10.601562 13.144531 -10.414062 C 13.949219 -9.855469 15.40625 -9.300781 15.40625 -7.5 C 15.40625 -4.03125 12.957031 -3.597656 10.941406 -3.597656 L 9.515625 -3.597656 C 8.339844 -3.597656 7.160156 -3.566406 6.355469 -2.882812 C 5.765625 -2.386719 5.300781 -2.417969 5.300781 -1.734375 C 5.300781 0.308594 6.851562 0.960938 8.152344 2.046875 C 8.773438 2.261719 9.453125 2.355469 10.136719 2.355469 C 15.5625 2.355469 19.375 -2.261719 20.394531 -6.726562 C 20.488281 -7.097656 20.519531 -7.46875 20.519531 -7.8125 C 20.519531 -10.105469 18.785156 -11.871094 17.234375 -13.113281 C 15.902344 -14.164062 14.257812 -14.601562 12.585938 -14.601562 C 9.734375 -14.601562 6.726562 -13.296875 4.773438 -11.53125 C 1.921875 -8.957031 0.621094 -4.804688 0.621094 -0.652344 C 0.621094 1.488281 0.960938 3.597656 1.613281 5.515625 C 2.230469 6.230469 2.015625 7.71875 3.347656 7.71875 Z M 3.347656 7.71875 "/></g></g></g><g fill="#000000" fill-opacity="1"><g transform="translate(112.071516, 90.50512)"><g><path d="M 0.929688 -3.253906 C 1.984375 -3.253906 2.789062 -4.464844 3.285156 -5.269531 C 4.679688 -7.46875 6.851562 -9.980469 6.851562 -12.585938 C 6.851562 -13.421875 6.664062 -14.257812 6.136719 -15.125 C 5.609375 -15.964844 4.617188 -16.707031 3.65625 -16.707031 C 2.820312 -16.707031 2.292969 -16.027344 2.292969 -15.3125 C 2.292969 -15.25 2.292969 -15.15625 2.324219 -15.066406 C 2.636719 -14.320312 2.757812 -13.578125 2.757812 -12.863281 C 2.757812 -10.847656 1.796875 -8.867188 1.054688 -7.128906 C 0.621094 -6.167969 -0.03125 -5.269531 -0.03125 -4.121094 C -0.03125 -3.625 0.433594 -3.253906 0.929688 -3.253906 Z M 0.929688 -3.253906 "/></g></g></g><g fill="#000000" fill-opacity="1"><g transform="translate(120.502469, 90.50512)"><g><path d="M 6.539062 3.65625 C 7.128906 3.65625 7.59375 3.222656 8.089844 2.976562 C 10.816406 -0.714844 14.445312 -4.554688 14.445312 -9.207031 C 14.445312 -10.042969 14.320312 -10.941406 14.042969 -11.871094 C 13.265625 -14.414062 10.011719 -15.621094 7.996094 -15.621094 C 5.425781 -15.621094 3.007812 -14.691406 1.148438 -12.925781 C 0.992188 -12.648438 0.929688 -12.335938 0.929688 -12.058594 C 0.929688 -10.351562 2.757812 -9.734375 3.285156 -9.734375 C 4.960938 -9.734375 6.601562 -11.902344 8.492188 -11.902344 C 10.167969 -11.902344 10.972656 -10.507812 10.972656 -8.773438 C 10.972656 -5.175781 8.835938 -2.199219 7.035156 0.714844 C 6.726562 1.425781 6.042969 2.140625 6.042969 2.945312 C 6.042969 3.222656 6.074219 3.65625 6.539062 3.65625 Z M 6.539062 3.65625 "/></g></g></g><g fill="#000000" fill-opacity="1"><g transform="translate(135.56659, 90.50512)"><g><path d="M 2.015625 3.441406 C 2.230469 3.441406 2.417969 3.285156 2.542969 3.128906 C 4.0625 -1.488281 5.457031 -6.136719 5.890625 -11.160156 C 6.011719 -12.554688 6.882812 -13.640625 6.882812 -15.097656 C 6.882812 -15.21875 6.851562 -15.34375 6.851562 -15.5 C 6.726562 -16.707031 5.546875 -17.667969 4.308594 -17.667969 C 3.101562 -17.667969 1.675781 -16.398438 1.675781 -15.003906 C 2.324219 -13.113281 2.542969 -11.003906 2.542969 -8.867188 C 2.542969 -6.199219 2.199219 -3.472656 1.796875 -1.054688 C 1.796875 0.0625 1.582031 1.023438 1.582031 1.890625 C 1.582031 2.230469 1.675781 3.441406 2.015625 3.441406 Z M 2.015625 3.441406 "/></g></g></g><g fill="#000000" fill-opacity="1"><g transform="translate(143.997543, 90.50512)"><g><path d="M 9.359375 2.386719 C 11.839844 1.734375 13.578125 -0.683594 14.289062 -2.976562 C 14.539062 -3.8125 14.691406 -4.710938 14.691406 -5.609375 C 14.691406 -9.796875 11.53125 -12.988281 7.6875 -12.988281 C 7.46875 -12.988281 7.253906 -12.957031 7.035156 -12.957031 C 4.339844 -12.183594 0.433594 -11.871094 -0.09375 -8.339844 C -0.09375 -7.222656 0.804688 -6.105469 2.015625 -6.105469 C 4.214844 -6.105469 4.496094 -9.578125 6.820312 -9.578125 C 7.003906 -9.578125 7.191406 -9.515625 7.59375 -9.515625 C 10.261719 -9.515625 11.5625 -6.167969 11.5625 -4.308594 C 11.5625 -3.128906 11.253906 -1.953125 10.726562 -1.023438 C 10.230469 -0.15625 8.585938 0.898438 8.585938 1.859375 C 8.585938 2.355469 9.113281 2.292969 9.359375 2.386719 Z M 2.574219 1.582031 C 2.574219 1.984375 2.945312 2.324219 3.566406 2.324219 C 5.578125 2.324219 7.066406 -0.308594 7.066406 -2.046875 C 7.066406 -2.199219 7.066406 -2.386719 7.035156 -2.574219 C 6.757812 -3.160156 6.230469 -3.410156 5.671875 -3.410156 C 4.496094 -3.410156 3.285156 -2.574219 3.285156 -1.550781 C 3.285156 -1.179688 3.410156 -0.773438 3.410156 -0.371094 C 3.410156 0.339844 2.574219 0.992188 2.574219 1.582031 Z M 2.574219 1.582031 "/></g></g></g><g fill="#000000" fill-opacity="1"><g transform="translate(159.309634, 90.50512)"><g/></g></g><g fill="#000000" fill-opacity="1"><g transform="translate(170.158289, 90.50512)"><g><path d="M -24.796875 15.21875 C -23.25 15.21875 -21.699219 14.878906 -20.148438 14.476562 C -9.886719 11.777344 -0.402344 6.945312 6.074219 -0.714844 C 7.53125 -2.417969 8.679688 -7.316406 11.003906 -7.316406 C 13.855469 -7.316406 14.570312 -0.683594 18.039062 0 C 18.132812 0.03125 18.226562 0.03125 18.320312 0.03125 C 19.589844 0.03125 20.488281 -1.085938 20.488281 -2.261719 C 20.488281 -2.726562 20.394531 -3.191406 20.210938 -3.625 C 17.109375 -7.75 14.257812 -14.847656 8.183594 -14.847656 C 5.953125 -14.847656 6.539062 -11.964844 6.011719 -10.570312 C 4.339844 -1.207031 -3.128906 4.742188 -10.695312 8.988281 C -14.910156 11.375 -20.117188 13.917969 -25.046875 13.917969 C -25.417969 13.917969 -25.757812 13.917969 -26.101562 13.886719 C -26.71875 13.824219 -27.09375 13.296875 -27.585938 13.296875 C -27.710938 13.296875 -27.804688 13.328125 -27.929688 13.390625 C -27.898438 13.515625 -27.867188 13.640625 -27.867188 13.792969 C -27.867188 13.917969 -27.898438 14.011719 -27.898438 14.136719 C -27.898438 15.15625 -25.789062 15.21875 -24.796875 15.21875 Z M -24.796875 15.21875 "/></g></g></g><g fill="#000000" fill-opacity="1"><g transform="translate(191.049683, 90.50512)"><g><path d="M 3.597656 2.542969 C 8.183594 2.542969 15.28125 -1.269531 15.28125 -5.921875 C 15.28125 -6.601562 15.125 -7.316406 14.785156 -8.058594 C 13.484375 -10.695312 10.789062 -11.128906 8.152344 -11.128906 C 6.386719 -11.128906 4.03125 -10.167969 4.03125 -8.585938 C 4.03125 -7.097656 5.082031 -6.664062 5.921875 -6.664062 C 7.160156 -6.664062 8.773438 -7.410156 10.011719 -7.410156 C 11.003906 -7.410156 12.089844 -6.695312 12.089844 -5.640625 C 12.089844 -5.300781 11.75 -4.648438 11.375 -4.152344 C 9.640625 -1.796875 6.011719 0.09375 2.882812 0.09375 C 2.511719 0.09375 2.167969 0.0625 1.828125 0 C 0.683594 -0.15625 -0.21875 -1.519531 -1.363281 -1.519531 C -1.675781 -1.519531 -1.859375 -1.488281 -1.859375 -1.207031 C -1.859375 1.613281 1.644531 2.542969 3.597656 2.542969 Z M 3.597656 2.542969 "/></g></g></g><g fill="#000000" fill-opacity="1"><g transform="translate(206.857714, 90.50512)"><g><path d="M 6.539062 3.65625 C 7.128906 3.65625 7.59375 3.222656 8.089844 2.976562 C 10.816406 -0.714844 14.445312 -4.554688 14.445312 -9.207031 C 14.445312 -10.042969 14.320312 -10.941406 14.042969 -11.871094 C 13.265625 -14.414062 10.011719 -15.621094 7.996094 -15.621094 C 5.425781 -15.621094 3.007812 -14.691406 1.148438 -12.925781 C 0.992188 -12.648438 0.929688 -12.335938 0.929688 -12.058594 C 0.929688 -10.351562 2.757812 -9.734375 3.285156 -9.734375 C 4.960938 -9.734375 6.601562 -11.902344 8.492188 -11.902344 C 10.167969 -11.902344 10.972656 -10.507812 10.972656 -8.773438 C 10.972656 -5.175781 8.835938 -2.199219 7.035156 0.714844 C 6.726562 1.425781 6.042969 2.140625 6.042969 2.945312 C 6.042969 3.222656 6.074219 3.65625 6.539062 3.65625 Z M 6.539062 3.65625 "/></g></g></g><g fill="#000000" fill-opacity="1"><g transform="translate(221.921835, 90.50512)"><g><path d="M 6.789062 1.734375 C 7.347656 1.734375 7.875 1.550781 8.246094 1.085938 C 9.453125 -0.742188 11.128906 -2.574219 11.128906 -4.835938 C 11.128906 -5.238281 11.066406 -5.640625 10.972656 -6.074219 C 12.027344 -7.46875 14.074219 -8.867188 14.074219 -10.695312 C 14.074219 -11.035156 13.980469 -11.40625 13.824219 -11.808594 C 12.800781 -14.136719 9.484375 -15.066406 7.6875 -15.066406 C 5.640625 -15.066406 3.566406 -14.226562 2.140625 -12.863281 C 1.582031 -11.871094 0.558594 -11.066406 0.558594 -9.828125 C 0.558594 -9.238281 1.238281 -9.144531 1.734375 -9.144531 C 2.015625 -9.144531 2.230469 -9.175781 2.230469 -9.175781 C 3.535156 -9.175781 3.070312 -10.507812 3.503906 -11.222656 C 4.464844 -12.585938 6.230469 -13.113281 7.996094 -13.113281 C 9.300781 -12.769531 11.035156 -12.089844 11.191406 -10.507812 C 10.507812 -8.554688 8.246094 -8.742188 6.386719 -8.339844 C 4.992188 -8.027344 3.441406 -7.160156 3.285156 -5.578125 C 3.410156 -4.742188 3.9375 -4 5.023438 -4 C 5.488281 -4 5.984375 -4.183594 6.386719 -4.183594 C 6.695312 -4.183594 6.914062 -4.089844 6.972656 -3.6875 C 6.074219 -2.757812 4.648438 -2.078125 4.648438 -0.742188 C 4.648438 0.339844 5.578125 1.734375 6.789062 1.734375 Z M 6.789062 1.734375 "/></g></g></g><g fill="#000000" fill-opacity="1"><g transform="translate(236.118069, 90.50512)"><g><path d="M 9.359375 2.386719 C 11.839844 1.734375 13.578125 -0.683594 14.289062 -2.976562 C 14.539062 -3.8125 14.691406 -4.710938 14.691406 -5.609375 C 14.691406 -9.796875 11.53125 -12.988281 7.6875 -12.988281 C 7.46875 -12.988281 7.253906 -12.957031 7.035156 -12.957031 C 4.339844 -12.183594 0.433594 -11.871094 -0.09375 -8.339844 C -0.09375 -7.222656 0.804688 -6.105469 2.015625 -6.105469 C 4.214844 -6.105469 4.496094 -9.578125 6.820312 -9.578125 C 7.003906 -9.578125 7.191406 -9.515625 7.59375 -9.515625 C 10.261719 -9.515625 11.5625 -6.167969 11.5625 -4.308594 C 11.5625 -3.128906 11.253906 -1.953125 10.726562 -1.023438 C 10.230469 -0.15625 8.585938 0.898438 8.585938 1.859375 C 8.585938 2.355469 9.113281 2.292969 9.359375 2.386719 Z M 2.574219 1.582031 C 2.574219 1.984375 2.945312 2.324219 3.566406 2.324219 C 5.578125 2.324219 7.066406 -0.308594 7.066406 -2.046875 C 7.066406 -2.199219 7.066406 -2.386719 7.035156 -2.574219 C 6.757812 -3.160156 6.230469 -3.410156 5.671875 -3.410156 C 4.496094 -3.410156 3.285156 -2.574219 3.285156 -1.550781 C 3.285156 -1.179688 3.410156 -0.773438 3.410156 -0.371094 C 3.410156 0.339844 2.574219 0.992188 2.574219 1.582031 Z M 2.574219 1.582031 "/></g></g></g><g fill="#000000" fill-opacity="1"><g transform="translate(251.43016, 90.50512)"><g><path d="M 2.015625 3.441406 C 2.230469 3.441406 2.417969 3.285156 2.542969 3.128906 C 4.0625 -1.488281 5.457031 -6.136719 5.890625 -11.160156 C 6.011719 -12.554688 6.882812 -13.640625 6.882812 -15.097656 C 6.882812 -15.21875 6.851562 -15.34375 6.851562 -15.5 C 6.726562 -16.707031 5.546875 -17.667969 4.308594 -17.667969 C 3.101562 -17.667969 1.675781 -16.398438 1.675781 -15.003906 C 2.324219 -13.113281 2.542969 -11.003906 2.542969 -8.867188 C 2.542969 -6.199219 2.199219 -3.472656 1.796875 -1.054688 C 1.796875 0.0625 1.582031 1.023438 1.582031 1.890625 C 1.582031 2.230469 1.675781 3.441406 2.015625 3.441406 Z M 2.015625 3.441406 "/></g></g></g><g fill="#000000" fill-opacity="1"><g transform="translate(259.861113, 90.50512)"><g/></g></g><g fill="#000000" fill-opacity="1"><g transform="translate(270.709768, 90.50512)"><g><path d="M 10.292969 1.488281 C 11.003906 1.488281 11.933594 1.117188 11.933594 0.246094 C 11.933594 -0.804688 11.71875 -2.324219 11.71875 -3.6875 C 11.71875 -4.992188 11.902344 -6.261719 12.648438 -7.285156 C 12.679688 -7.4375 12.679688 -7.59375 12.679688 -7.75 C 12.679688 -10.074219 10.414062 -11.40625 10.414062 -13.640625 C 10.910156 -14.601562 10.507812 -15.839844 11.28125 -16.675781 C 13.421875 -19.03125 14.445312 -21.636719 14.476562 -24.828125 C 14.476562 -26.410156 14.164062 -27.960938 13.609375 -29.355469 C 13.082031 -30.53125 11.964844 -31.710938 10.757812 -31.710938 C 10.351562 -31.710938 9.917969 -31.585938 9.640625 -31.183594 C 8.867188 -27.246094 9.050781 -23.21875 8.773438 -19.25 C 7.90625 -19.558594 6.914062 -19.777344 5.890625 -19.777344 C 4.089844 -19.777344 2.261719 -19.15625 1.300781 -17.574219 C 1.117188 -17.265625 1.054688 -17.019531 1.054688 -16.738281 C 1.054688 -16.273438 1.269531 -15.902344 1.519531 -15.5 C 2.945312 -13.203125 5.363281 -12.492188 7.8125 -12.492188 L 8.277344 -12.492188 C 8.214844 -10.664062 8.027344 -9.082031 8.027344 -7.191406 C 8.027344 -4.835938 8.246094 -2.199219 8.246094 -0.03125 C 8.773438 0.742188 9.082031 1.488281 10.292969 1.488281 Z M 3.566406 -15.871094 C 3.566406 -16.644531 4.929688 -17.855469 6.914062 -17.855469 C 7.46875 -17.855469 8.089844 -17.761719 8.710938 -17.542969 C 8.742188 -17.359375 8.742188 -17.171875 8.742188 -16.988281 C 8.742188 -15.1875 7.316406 -14.476562 5.984375 -14.476562 C 4.742188 -14.476562 3.566406 -15.066406 3.566406 -15.871094 Z M 11.191406 -19.621094 C 11.5 -22.164062 11.6875 -24.734375 11.839844 -27.308594 C 11.964844 -27.121094 12.027344 -26.875 12.089844 -26.6875 C 12.152344 -26.101562 12.183594 -25.511719 12.183594 -24.921875 C 12.183594 -23.09375 11.871094 -21.265625 11.191406 -19.621094 Z M 11.191406 -19.621094 "/></g></g></g><g fill="#000000" fill-opacity="1"><g transform="translate(285.060967, 90.50512)"><g><path d="M 2.015625 3.441406 C 2.230469 3.441406 2.417969 3.285156 2.542969 3.128906 C 4.0625 -1.488281 5.457031 -6.136719 5.890625 -11.160156 C 6.011719 -12.554688 6.882812 -13.640625 6.882812 -15.097656 C 6.882812 -15.21875 6.851562 -15.34375 6.851562 -15.5 C 6.726562 -16.707031 5.546875 -17.667969 4.308594 -17.667969 C 3.101562 -17.667969 1.675781 -16.398438 1.675781 -15.003906 C 2.324219 -13.113281 2.542969 -11.003906 2.542969 -8.867188 C 2.542969 -6.199219 2.199219 -3.472656 1.796875 -1.054688 C 1.796875 0.0625 1.582031 1.023438 1.582031 1.890625 C 1.582031 2.230469 1.675781 3.441406 2.015625 3.441406 Z M 2.015625 3.441406 "/></g></g></g><g fill="#000000" fill-opacity="1"><g transform="translate(293.491921, 90.50512)"><g><path d="M 4.992188 2.664062 C 5.238281 2.664062 5.546875 2.605469 5.828125 2.511719 C 8.925781 0.898438 8.152344 -3.039062 8.804688 -5.984375 C 9.515625 -6.695312 10.570312 -6.570312 11.191406 -7.347656 C 11.066406 -8.214844 10.445312 -8.835938 9.886719 -9.390625 C 9.886719 -10.382812 10.136719 -11.3125 10.136719 -12.183594 C 10.136719 -13.761719 8.988281 -15.28125 7.46875 -15.28125 C 5.859375 -15.28125 5.488281 -13.855469 5.488281 -12.894531 C 5.488281 -11.964844 5.734375 -10.847656 5.734375 -9.855469 C 5.734375 -9.515625 5.703125 -9.175781 5.640625 -8.867188 C 5.332031 -8.894531 5.023438 -8.925781 4.710938 -8.925781 C 2.574219 -8.925781 0.527344 -7.90625 -0.433594 -6.074219 C -0.496094 -5.671875 -0.527344 -5.269531 -0.527344 -4.867188 C -0.527344 -1.796875 1.644531 2.664062 4.992188 2.664062 Z M 2.230469 -4.710938 C 2.230469 -6.074219 4.402344 -6.632812 5.425781 -6.695312 C 5.207031 -4.867188 5.578125 -2.757812 4.308594 -1.488281 C 2.789062 -1.488281 2.230469 -3.472656 2.230469 -4.710938 Z M 2.230469 -4.710938 "/></g></g></g><g fill="#000000" fill-opacity="1"><g transform="translate(305.301444, 90.50512)"><g><path d="M 0.929688 -3.253906 C 1.984375 -3.253906 2.789062 -4.464844 3.285156 -5.269531 C 4.679688 -7.46875 6.851562 -9.980469 6.851562 -12.585938 C 6.851562 -13.421875 6.664062 -14.257812 6.136719 -15.125 C 5.609375 -15.964844 4.617188 -16.707031 3.65625 -16.707031 C 2.820312 -16.707031 2.292969 -16.027344 2.292969 -15.3125 C 2.292969 -15.25 2.292969 -15.15625 2.324219 -15.066406 C 2.636719 -14.320312 2.757812 -13.578125 2.757812 -12.863281 C 2.757812 -10.847656 1.796875 -8.867188 1.054688 -7.128906 C 0.621094 -6.167969 -0.03125 -5.269531 -0.03125 -4.121094 C -0.03125 -3.625 0.433594 -3.253906 0.929688 -3.253906 Z M 0.929688 -3.253906 "/></g></g></g><g fill="#000000" fill-opacity="1"><g transform="translate(313.732398, 90.50512)"><g><path d="M 0.929688 -3.253906 C 1.984375 -3.253906 2.789062 -4.464844 3.285156 -5.269531 C 4.679688 -7.46875 6.851562 -9.980469 6.851562 -12.585938 C 6.851562 -13.421875 6.664062 -14.257812 6.136719 -15.125 C 5.609375 -15.964844 4.617188 -16.707031 3.65625 -16.707031 C 2.820312 -16.707031 2.292969 -16.027344 2.292969 -15.3125 C 2.292969 -15.25 2.292969 -15.15625 2.324219 -15.066406 C 2.636719 -14.320312 2.757812 -13.578125 2.757812 -12.863281 C 2.757812 -10.847656 1.796875 -8.867188 1.054688 -7.128906 C 0.621094 -6.167969 -0.03125 -5.269531 -0.03125 -4.121094 C -0.03125 -3.625 0.433594 -3.253906 0.929688 -3.253906 Z M 0.929688 -3.253906 "/></g></g></g></svg>